<svg width="441" height="130" viewBox="0 0 441 130" fill="none" xmlns="http://www.w3.org/2000/svg">
<g filter="url(#filter0_d_1043_920)">
<path d="M220.2 7.19995C235.114 7.19995 247.91 16.0169 253.373 28.5818C256.456 35.6712 262.466 42.1912 270.196 42.1912H428.2C431.514 42.1912 434.2 44.8775 434.2 48.1912V110.2C434.2 117.932 427.932 124.2 420.2 124.2H20.1999C12.468 124.2 6.19995 117.932 6.19995 110.2V48.1912C6.19995 44.8775 8.88624 42.1912 12.2 42.1912H170.203C177.934 42.1912 183.944 35.6712 187.027 28.5818C192.49 16.0169 205.286 7.19995 220.2 7.19995Z" fill="white"/>
</g>
<defs>
<filter id="filter0_d_1043_920" x="-4.86374e-05" y="-4.86374e-05" width="440.4" height="129.4" filterUnits="userSpaceOnUse" color-interpolation-filters="sRGB">
<feFlood flood-opacity="0" result="BackgroundImageFix"/>
<feColorMatrix in="SourceAlpha" type="matrix" values="0 0 0 0 0 0 0 0 0 0 0 0 0 0 0 0 0 0 127 0" result="hardAlpha"/>
<feOffset dy="-1"/>
<feGaussianBlur stdDeviation="3.1"/>
<feComposite in2="hardAlpha" operator="out"/>
<feColorMatrix type="matrix" values="0 0 0 0 0 0 0 0 0 0 0 0 0 0 0 0 0 0 0.25 0"/>
<feBlend mode="normal" in2="BackgroundImageFix" result="effect1_dropShadow_1043_920"/>
<feBlend mode="normal" in="SourceGraphic" in2="effect1_dropShadow_1043_920" result="shape"/>
</filter>
</defs>
</svg>
