<svg width="51" height="49" viewBox="0 0 51 49" fill="none" xmlns="http://www.w3.org/2000/svg">
<path d="M25.4361 18.1039C26.3903 18.2017 27.2743 18.65 27.9171 19.3619C28.5599 20.0739 28.9157 20.999 28.9159 21.9582C28.9159 23.9499 27.7017 25.5981 26.069 26.6857C24.4286 27.781 22.2328 28.4165 19.8742 28.4165C17.5156 28.4165 15.3198 27.781 13.6794 26.6857C12.0441 25.6007 10.8325 23.9499 10.8325 21.9582C10.8325 20.9305 11.2408 19.9449 11.9675 19.2182C12.6942 18.4914 13.6798 18.0832 14.7075 18.0832H25.0409L25.4361 18.1039ZM35.369 18.0832C36.3967 18.0832 37.3824 18.4914 38.1091 19.2182C38.8358 19.9449 39.244 20.9305 39.244 21.9582C39.244 23.7536 38.1306 25.0866 36.7046 25.9055C35.2889 26.7193 33.4367 27.1249 31.494 27.1249C30.8413 27.1231 30.2041 27.0758 29.5824 26.9828C30.1869 26.2698 30.6932 25.4509 31.0316 24.5286C31.1849 24.5372 31.339 24.5415 31.494 24.5415C33.1189 24.5415 34.4959 24.1979 35.4181 23.6684C36.33 23.1439 36.6607 22.5394 36.6607 21.9582C36.6607 21.6156 36.5246 21.2871 36.2824 21.0448C36.0401 20.8026 35.7116 20.6665 35.369 20.6665H31.3649C31.1702 19.7291 30.7696 18.8467 30.192 18.0832H35.369ZM14.7075 20.6665C14.3649 20.6665 14.0364 20.8026 13.7942 21.0448C13.5519 21.2871 13.4159 21.6156 13.4159 21.9582C13.4159 22.8184 13.9403 23.7562 15.1105 24.5364C16.273 25.3114 17.9522 25.8332 19.8742 25.8332C21.7936 25.8332 23.4754 25.3114 24.6379 24.5364C25.8081 23.7562 26.3325 22.8184 26.3325 21.9582C26.3326 21.6604 26.2298 21.3718 26.0415 21.1411C25.8532 20.9104 25.5909 20.7519 25.2992 20.6924L25.0409 20.6665H14.7075ZM20.4709 3.8981C21.9036 4.04513 23.2309 4.71812 24.1962 5.78695C25.1615 6.85579 25.6962 8.24456 25.697 9.68477L25.666 10.2789C25.5178 11.7107 24.8443 13.0367 23.7756 14.001C22.7069 14.9652 21.3188 15.4992 19.8794 15.4999L19.2852 15.4689C17.9543 15.3331 16.7111 14.7424 15.7651 13.7964C14.8192 12.8505 14.2285 11.6072 14.0927 10.2764L14.0617 9.68219C14.0617 8.13901 14.6745 6.659 15.7655 5.56756C16.8564 4.47613 18.3362 3.86262 19.8794 3.86194L20.4709 3.8981ZM32.145 6.45044C32.7387 6.45044 33.3266 6.56737 33.8751 6.79457C34.4236 7.02176 34.9219 7.35476 35.3417 7.77456C35.7615 8.19436 36.0945 8.69273 36.3217 9.24122C36.5489 9.78972 36.6659 10.3776 36.6659 10.9713C36.6659 11.565 36.5489 12.1528 36.3217 12.7013C36.0945 13.2498 35.7615 13.7482 35.3417 14.168C34.9219 14.5878 34.4236 14.9208 33.8751 15.148C33.3266 15.3752 32.7387 15.4921 32.145 15.4921C30.946 15.4921 29.7961 15.0158 28.9483 14.168C28.1005 13.3202 27.6242 12.1703 27.6242 10.9713C27.6242 9.77227 28.1005 8.62238 28.9483 7.77456C29.7961 6.92674 30.946 6.45044 32.145 6.45044ZM19.8794 6.45044C19.4546 6.45044 19.034 6.5341 18.6416 6.69664C18.2492 6.85918 17.8927 7.09742 17.5923 7.39775C17.292 7.69809 17.0538 8.05464 16.8912 8.44705C16.7287 8.83945 16.645 9.26003 16.645 9.68477C16.645 10.1095 16.7287 10.5301 16.8912 10.9225C17.0538 11.3149 17.292 11.6715 17.5923 11.9718C17.8927 12.2721 18.2492 12.5104 18.6416 12.6729C19.034 12.8354 19.4546 12.9191 19.8794 12.9191C20.7372 12.9191 21.5598 12.5783 22.1664 11.9718C22.7729 11.3652 23.1137 10.5426 23.1137 9.68477C23.1137 8.82697 22.7729 8.00431 22.1664 7.39775C21.5598 6.7912 20.7372 6.45044 19.8794 6.45044ZM32.145 9.03377C31.6312 9.03377 31.1384 9.2379 30.775 9.60125C30.4116 9.9646 30.2075 10.4574 30.2075 10.9713C30.2075 11.4851 30.4116 11.9779 30.775 12.3413C31.1384 12.7046 31.6312 12.9088 32.145 12.9088C32.6589 12.9088 33.1517 12.7046 33.515 12.3413C33.8784 11.9779 34.0825 11.4851 34.0825 10.9713C34.0825 10.4574 33.8784 9.9646 33.515 9.60125C33.1517 9.2379 32.6589 9.03377 32.145 9.03377Z" fill="#828282"/>
<path d="M5.48496 45V36.6H10.597V37.428H6.49296V40.26H9.98496V41.076H6.49296V45H5.48496ZM11.8351 45V39.048H12.7471L12.8311 40.188C13.0151 39.796 13.2951 39.484 13.6711 39.252C14.0471 39.02 14.5111 38.904 15.0631 38.904V39.96H14.7871C14.1311 39.96 13.6431 40.136 13.3231 40.488C13.0031 40.84 12.8431 41.344 12.8431 42V45H11.8351ZM16.8065 37.728C16.6065 37.728 16.4385 37.664 16.3025 37.536C16.1745 37.4 16.1105 37.232 16.1105 37.032C16.1105 36.84 16.1745 36.68 16.3025 36.552C16.4385 36.424 16.6065 36.36 16.8065 36.36C16.9985 36.36 17.1625 36.424 17.2985 36.552C17.4345 36.68 17.5025 36.84 17.5025 37.032C17.5025 37.232 17.4345 37.4 17.2985 37.536C17.1625 37.664 16.9985 37.728 16.8065 37.728ZM16.3025 45V39.048H17.3105V45H16.3025ZM21.7416 45.144C21.1896 45.144 20.6896 45.016 20.2416 44.76C19.8016 44.504 19.4536 44.144 19.1976 43.68C18.9416 43.208 18.8136 42.656 18.8136 42.024C18.8136 41.4 18.9336 40.856 19.1736 40.392C19.4216 39.92 19.7656 39.556 20.2056 39.3C20.6536 39.036 21.1736 38.904 21.7656 38.904C22.3256 38.904 22.8136 39.028 23.2296 39.276C23.6456 39.524 23.9696 39.86 24.2016 40.284C24.4416 40.7 24.5616 41.168 24.5616 41.688C24.5616 41.8 24.5616 41.888 24.5616 41.952C24.5616 42.016 24.5576 42.116 24.5496 42.252H19.8096C19.8336 42.644 19.9256 42.996 20.0856 43.308C20.2536 43.612 20.4776 43.852 20.7576 44.028C21.0456 44.204 21.3736 44.292 21.7416 44.292C22.1576 44.292 22.5056 44.196 22.7856 44.004C23.0656 43.812 23.2696 43.552 23.3976 43.224H24.3936C24.2896 43.592 24.1176 43.92 23.8776 44.208C23.6376 44.496 23.3376 44.724 22.9776 44.892C22.6256 45.06 22.2136 45.144 21.7416 45.144ZM19.8216 41.472H23.5656C23.5416 40.936 23.3576 40.516 23.0136 40.212C22.6696 39.908 22.2456 39.756 21.7416 39.756C21.2616 39.756 20.8336 39.904 20.4576 40.2C20.0896 40.488 19.8776 40.912 19.8216 41.472ZM25.8976 45V39.048H26.8096L26.8696 40.116C27.0616 39.74 27.3376 39.444 27.6976 39.228C28.0576 39.012 28.4656 38.904 28.9216 38.904C29.6256 38.904 30.1856 39.12 30.6016 39.552C31.0256 39.976 31.2376 40.632 31.2376 41.52V45H30.2296V41.628C30.2296 41.012 30.1016 40.548 29.8456 40.236C29.5896 39.924 29.2056 39.768 28.6936 39.768C28.1816 39.768 27.7536 39.956 27.4096 40.332C27.0736 40.7 26.9056 41.228 26.9056 41.916V45H25.8976ZM35.4765 45.144C34.8685 45.144 34.3445 45.004 33.9045 44.724C33.4645 44.444 33.1245 44.068 32.8845 43.596C32.6445 43.124 32.5245 42.596 32.5245 42.012C32.5245 41.436 32.6405 40.912 32.8725 40.44C33.1125 39.968 33.4525 39.596 33.8925 39.324C34.3325 39.044 34.8645 38.904 35.4885 38.904C35.9765 38.904 36.4085 39.004 36.7845 39.204C37.1605 39.404 37.4525 39.684 37.6605 40.044V36.6H38.6685V45H37.7565L37.6605 44.016C37.4685 44.304 37.1925 44.564 36.8325 44.796C36.4725 45.028 36.0205 45.144 35.4765 45.144ZM35.5845 44.268C36.0245 44.268 36.3965 44.168 36.7005 43.968C37.0045 43.76 37.2325 43.488 37.3845 43.152C37.5445 42.808 37.6245 42.432 37.6245 42.024C37.6245 41.592 37.5445 41.208 37.3845 40.872C37.2245 40.536 36.9925 40.272 36.6885 40.08C36.3845 39.88 36.0165 39.78 35.5845 39.78C35.2005 39.78 34.8565 39.872 34.5525 40.056C34.2485 40.24 34.0045 40.5 33.8205 40.836C33.6445 41.164 33.5565 41.56 33.5565 42.024C33.5565 42.488 33.6485 42.888 33.8325 43.224C34.0165 43.56 34.2605 43.82 34.5645 44.004C34.8765 44.18 35.2165 44.268 35.5845 44.268ZM42.5917 45.144C42.1197 45.144 41.6957 45.064 41.3197 44.904C40.9437 44.736 40.6397 44.504 40.4077 44.208C40.1837 43.904 40.0437 43.548 39.9877 43.14H41.0197C41.0837 43.452 41.2477 43.724 41.5117 43.956C41.7837 44.18 42.1477 44.292 42.6037 44.292C43.0277 44.292 43.3397 44.204 43.5397 44.028C43.7397 43.844 43.8397 43.628 43.8397 43.38C43.8397 43.14 43.7797 42.956 43.6597 42.828C43.5477 42.7 43.3797 42.604 43.1557 42.54C42.9397 42.468 42.6717 42.4 42.3517 42.336C42.0157 42.264 41.6877 42.168 41.3677 42.048C41.0477 41.92 40.7837 41.748 40.5757 41.532C40.3677 41.316 40.2637 41.032 40.2637 40.68C40.2637 40.328 40.3517 40.02 40.5277 39.756C40.7037 39.492 40.9517 39.284 41.2717 39.132C41.5997 38.98 41.9837 38.904 42.4237 38.904C43.0557 38.904 43.5717 39.064 43.9717 39.384C44.3797 39.696 44.6157 40.144 44.6797 40.728H43.6837C43.6437 40.424 43.5117 40.188 43.2877 40.02C43.0717 39.844 42.7797 39.756 42.4117 39.756C42.0517 39.756 41.7717 39.832 41.5717 39.984C41.3797 40.136 41.2837 40.336 41.2837 40.584C41.2837 40.744 41.3397 40.88 41.4517 40.992C41.5637 41.104 41.7237 41.2 41.9317 41.28C42.1477 41.36 42.3997 41.432 42.6877 41.496C43.0877 41.576 43.4517 41.676 43.7797 41.796C44.1077 41.916 44.3717 42.092 44.5717 42.324C44.7717 42.548 44.8717 42.872 44.8717 43.296C44.8797 43.648 44.7877 43.964 44.5957 44.244C44.4117 44.524 44.1477 44.744 43.8037 44.904C43.4677 45.064 43.0637 45.144 42.5917 45.144Z" fill="#828282"/>
</svg>
