<svg width="51" height="49" viewBox="0 0 51 49" fill="none" xmlns="http://www.w3.org/2000/svg">
<path d="M25.4361 18.1039C26.3903 18.2017 27.2743 18.65 27.9171 19.3619C28.5599 20.0739 28.9157 20.999 28.9159 21.9582C28.9159 23.9499 27.7017 25.5981 26.069 26.6857C24.4286 27.781 22.2328 28.4165 19.8742 28.4165C17.5156 28.4165 15.3198 27.781 13.6794 26.6857C12.0441 25.6007 10.8325 23.9499 10.8325 21.9582C10.8325 20.9305 11.2408 19.9449 11.9675 19.2182C12.6942 18.4914 13.6798 18.0832 14.7075 18.0832H25.0409L25.4361 18.1039ZM35.369 18.0832C36.3967 18.0832 37.3824 18.4914 38.1091 19.2182C38.8358 19.9449 39.244 20.9305 39.244 21.9582C39.244 23.7536 38.1306 25.0866 36.7046 25.9055C35.2889 26.7193 33.4367 27.1249 31.494 27.1249C30.8413 27.1231 30.2041 27.0758 29.5824 26.9828C30.1869 26.2698 30.6932 25.4509 31.0316 24.5286C31.1849 24.5372 31.339 24.5415 31.494 24.5415C33.1189 24.5415 34.4959 24.1979 35.4181 23.6684C36.33 23.1439 36.6607 22.5394 36.6607 21.9582C36.6607 21.6156 36.5246 21.2871 36.2824 21.0448C36.0401 20.8026 35.7116 20.6665 35.369 20.6665H31.3649C31.1702 19.7291 30.7696 18.8467 30.192 18.0832H35.369ZM14.7075 20.6665C14.3649 20.6665 14.0364 20.8026 13.7942 21.0448C13.5519 21.2871 13.4159 21.6156 13.4159 21.9582C13.4159 22.8184 13.9403 23.7562 15.1105 24.5364C16.273 25.3114 17.9522 25.8332 19.8742 25.8332C21.7936 25.8332 23.4754 25.3114 24.6379 24.5364C25.8081 23.7562 26.3325 22.8184 26.3325 21.9582C26.3326 21.6604 26.2298 21.3718 26.0415 21.1411C25.8532 20.9104 25.5909 20.7519 25.2992 20.6924L25.0409 20.6665H14.7075ZM20.4709 3.8981C21.9036 4.04513 23.2309 4.71812 24.1962 5.78695C25.1615 6.85579 25.6962 8.24456 25.697 9.68477L25.666 10.2789C25.5178 11.7107 24.8443 13.0367 23.7756 14.001C22.7069 14.9652 21.3188 15.4992 19.8794 15.4999L19.2852 15.4689C17.9543 15.3331 16.7111 14.7424 15.7651 13.7964C14.8192 12.8505 14.2285 11.6072 14.0927 10.2764L14.0617 9.68219C14.0617 8.13901 14.6745 6.659 15.7655 5.56756C16.8564 4.47613 18.3362 3.86262 19.8794 3.86194L20.4709 3.8981ZM32.145 6.45044C32.7387 6.45044 33.3266 6.56737 33.8751 6.79457C34.4236 7.02176 34.9219 7.35476 35.3417 7.77456C35.7615 8.19436 36.0945 8.69273 36.3217 9.24122C36.5489 9.78972 36.6659 10.3776 36.6659 10.9713C36.6659 11.565 36.5489 12.1528 36.3217 12.7013C36.0945 13.2498 35.7615 13.7482 35.3417 14.168C34.9219 14.5878 34.4236 14.9208 33.8751 15.148C33.3266 15.3752 32.7387 15.4921 32.145 15.4921C30.946 15.4921 29.7961 15.0158 28.9483 14.168C28.1005 13.3202 27.6242 12.1703 27.6242 10.9713C27.6242 9.77227 28.1005 8.62238 28.9483 7.77456C29.7961 6.92674 30.946 6.45044 32.145 6.45044ZM19.8794 6.45044C19.4546 6.45044 19.034 6.5341 18.6416 6.69664C18.2492 6.85918 17.8927 7.09742 17.5923 7.39775C17.292 7.69809 17.0538 8.05464 16.8912 8.44705C16.7287 8.83945 16.645 9.26003 16.645 9.68477C16.645 10.1095 16.7287 10.5301 16.8912 10.9225C17.0538 11.3149 17.292 11.6715 17.5923 11.9718C17.8927 12.2721 18.2492 12.5104 18.6416 12.6729C19.034 12.8354 19.4546 12.9191 19.8794 12.9191C20.7372 12.9191 21.5598 12.5783 22.1664 11.9718C22.7729 11.3652 23.1137 10.5426 23.1137 9.68477C23.1137 8.82697 22.7729 8.00431 22.1664 7.39775C21.5598 6.7912 20.7372 6.45044 19.8794 6.45044ZM32.145 9.03377C31.6312 9.03377 31.1384 9.2379 30.775 9.60125C30.4116 9.9646 30.2075 10.4574 30.2075 10.9713C30.2075 11.4851 30.4116 11.9779 30.775 12.3413C31.1384 12.7046 31.6312 12.9088 32.145 12.9088C32.6589 12.9088 33.1517 12.7046 33.515 12.3413C33.8784 11.9779 34.0825 11.4851 34.0825 10.9713C34.0825 10.4574 33.8784 9.9646 33.515 9.60125C33.1517 9.2379 32.6589 9.03377 32.145 9.03377Z" fill="black"/>
<path d="M5.77653 45V36.6H10.9845V37.668H7.04853V40.128H10.4445V41.196H7.04853V45H5.77653ZM12.031 45V39.048H13.255L13.291 40.056C13.491 39.696 13.763 39.416 14.107 39.216C14.459 39.008 14.871 38.904 15.343 38.904V40.236H14.995C14.427 40.236 14.003 40.384 13.723 40.68C13.443 40.968 13.303 41.412 13.303 42.012V45H12.031ZM16.9814 38.004C16.7494 38.004 16.5494 37.924 16.3814 37.764C16.2214 37.596 16.1414 37.392 16.1414 37.152C16.1414 36.92 16.2214 36.724 16.3814 36.564C16.5494 36.404 16.7494 36.324 16.9814 36.324C17.2214 36.324 17.4214 36.404 17.5814 36.564C17.7494 36.724 17.8334 36.92 17.8334 37.152C17.8334 37.392 17.7494 37.596 17.5814 37.764C17.4214 37.924 17.2214 38.004 16.9814 38.004ZM16.3454 45V39.048H17.6174V45H16.3454ZM21.8222 45.144C21.2382 45.144 20.7222 45.012 20.2742 44.748C19.8262 44.484 19.4742 44.116 19.2182 43.644C18.9702 43.172 18.8462 42.632 18.8462 42.024C18.8462 41.392 18.9702 40.844 19.2182 40.38C19.4662 39.916 19.8142 39.556 20.2622 39.3C20.7182 39.036 21.2422 38.904 21.8342 38.904C22.4102 38.904 22.9142 39.032 23.3462 39.288C23.7782 39.536 24.1142 39.876 24.3542 40.308C24.6022 40.74 24.7262 41.232 24.7262 41.784C24.7262 41.896 24.7222 41.992 24.7142 42.072C24.7142 42.152 24.7062 42.248 24.6902 42.36H20.1182C20.1422 42.696 20.2262 42.996 20.3702 43.26C20.5142 43.516 20.7102 43.72 20.9582 43.872C21.2062 44.016 21.4902 44.088 21.8102 44.088C22.1542 44.088 22.4462 44.012 22.6862 43.86C22.9342 43.7 23.1182 43.476 23.2382 43.188H24.5582C24.4542 43.548 24.2782 43.876 24.0302 44.172C23.7902 44.468 23.4862 44.704 23.1182 44.88C22.7502 45.056 22.3182 45.144 21.8222 45.144ZM20.1302 41.46H23.4302C23.4142 40.996 23.2502 40.632 22.9382 40.368C22.6262 40.096 22.2462 39.96 21.7982 39.96C21.3982 39.96 21.0342 40.084 20.7062 40.332C20.3782 40.58 20.1862 40.956 20.1302 41.46ZM25.7888 45V39.048H27.0128L27.0368 39.924C27.2368 39.596 27.5128 39.344 27.8648 39.168C28.2248 38.992 28.6048 38.904 29.0048 38.904C29.7008 38.904 30.2648 39.124 30.6968 39.564C31.1288 39.996 31.3448 40.644 31.3448 41.508V45H30.0728V41.664C30.0728 41.128 29.9528 40.716 29.7128 40.428C29.4728 40.132 29.1128 39.984 28.6328 39.984C28.1608 39.984 27.7808 40.148 27.4928 40.476C27.2048 40.796 27.0608 41.24 27.0608 41.808V45H25.7888ZM35.2491 45.144C34.6571 45.144 34.1451 45.004 33.7131 44.724C33.2891 44.436 32.9611 44.056 32.7291 43.584C32.5051 43.112 32.3931 42.584 32.3931 42C32.3931 41.424 32.5051 40.904 32.7291 40.44C32.9611 39.968 33.2891 39.596 33.7131 39.324C34.1451 39.044 34.6571 38.904 35.2491 38.904C35.6891 38.904 36.0891 38.996 36.4491 39.18C36.8091 39.356 37.1011 39.608 37.3251 39.936V36.6H38.6091V45H37.3731L37.3251 44.076C37.1331 44.388 36.8571 44.644 36.4971 44.844C36.1371 45.044 35.7211 45.144 35.2491 45.144ZM35.5011 44.028C35.8771 44.028 36.2011 43.94 36.4731 43.764C36.7451 43.588 36.9531 43.348 37.0971 43.044C37.2411 42.74 37.3131 42.4 37.3131 42.024C37.3131 41.592 37.2291 41.228 37.0611 40.932C36.9011 40.636 36.6811 40.408 36.4011 40.248C36.1291 40.088 35.8251 40.008 35.4891 40.008C35.1451 40.008 34.8371 40.092 34.5651 40.26C34.2931 40.428 34.0771 40.66 33.9171 40.956C33.7651 41.252 33.6891 41.604 33.6891 42.012C33.6891 42.412 33.7691 42.764 33.9291 43.068C34.0891 43.372 34.3051 43.608 34.5771 43.776C34.8491 43.944 35.1571 44.028 35.5011 44.028ZM42.3325 45.144C41.8685 45.144 41.4445 45.064 41.0605 44.904C40.6765 44.736 40.3645 44.5 40.1245 44.196C39.8845 43.892 39.7445 43.536 39.7045 43.128H40.9885C41.0445 43.416 41.1925 43.652 41.4325 43.836C41.6725 44.02 41.9725 44.112 42.3325 44.112C42.6525 44.112 42.9125 44.044 43.1125 43.908C43.3125 43.764 43.4125 43.576 43.4125 43.344C43.4125 43.144 43.3445 42.988 43.2085 42.876C43.0805 42.764 42.9125 42.676 42.7045 42.612C42.5045 42.548 42.2845 42.492 42.0445 42.444C41.6765 42.356 41.3285 42.248 41.0005 42.12C40.6805 41.992 40.4205 41.816 40.2205 41.592C40.0205 41.368 39.9205 41.068 39.9205 40.692C39.9205 40.324 40.0165 40.008 40.2085 39.744C40.4085 39.472 40.6805 39.264 41.0245 39.12C41.3685 38.976 41.7565 38.904 42.1885 38.904C42.8365 38.904 43.3765 39.068 43.8085 39.396C44.2405 39.716 44.4805 40.188 44.5285 40.812H43.3045C43.2725 40.532 43.1525 40.316 42.9445 40.164C42.7445 40.012 42.4845 39.936 42.1645 39.936C41.8685 39.936 41.6285 39.996 41.4445 40.116C41.2605 40.228 41.1685 40.4 41.1685 40.632C41.1685 40.792 41.2325 40.928 41.3605 41.04C41.4885 41.144 41.6525 41.232 41.8525 41.304C42.0605 41.368 42.2765 41.428 42.5005 41.484C42.9085 41.572 43.2725 41.68 43.5925 41.808C43.9125 41.936 44.1685 42.116 44.3605 42.348C44.5525 42.58 44.6525 42.9 44.6605 43.308C44.6605 43.676 44.5565 44 44.3485 44.28C44.1485 44.552 43.8725 44.764 43.5205 44.916C43.1765 45.068 42.7805 45.144 42.3325 45.144Z" fill="black"/>
</svg>
