<svg width="51" height="49" viewBox="0 0 51 49" fill="none" xmlns="http://www.w3.org/2000/svg">
<path d="M23.3078 3.36046C23.7977 2.96301 24.4094 2.74609 25.0403 2.74609C25.6712 2.74609 26.2828 2.96301 26.7728 3.36046L37.2613 11.858C37.7382 12.2442 38.1229 12.7319 38.3875 13.2857C38.652 13.8395 38.7896 14.4453 38.7903 15.059V27.5C38.7903 28.2293 38.5006 28.9288 37.9848 29.4445C37.4691 29.9602 36.7696 30.25 36.0403 30.25H30.5403C29.8109 30.25 29.1115 29.9602 28.5957 29.4445C28.08 28.9288 27.7903 28.2293 27.7903 27.5V19.25H22.2903V27.5C22.2903 28.2293 22.0006 28.9288 21.4848 29.4445C20.9691 29.9602 20.2696 30.25 19.5403 30.25H14.0403C13.3109 30.25 12.6115 29.9602 12.0957 29.4445C11.58 28.9288 11.2903 28.2293 11.2903 27.5V15.0617C11.2902 14.4471 11.4274 13.8402 11.6919 13.2854C11.9565 12.7307 12.3416 12.242 12.8193 11.8552L23.3078 3.36046ZM35.5315 13.992L25.0403 5.49996L14.549 13.992C14.3899 14.1211 14.2616 14.2841 14.1736 14.4692C14.0855 14.6543 14.04 14.8568 14.0403 15.0617V27.5H19.5403V19.25C19.5403 18.5206 19.83 17.8211 20.3457 17.3054C20.8615 16.7897 21.5609 16.5 22.2903 16.5H27.7903C28.5196 16.5 29.2191 16.7897 29.7348 17.3054C30.2506 17.8211 30.5403 18.5206 30.5403 19.25V27.5H36.0403V15.0617C36.0406 14.8568 35.995 14.6543 35.907 14.4692C35.819 14.2841 35.6907 14.1211 35.5315 13.992Z" fill="#828282"/>
<path d="M9.45176 45V36.6H10.4598V40.14H14.8158V36.6H15.8238V45H14.8158V40.968H10.4598V45H9.45176ZM20.2843 45.144C19.7403 45.144 19.2403 45.024 18.7843 44.784C18.3283 44.536 17.9643 44.18 17.6923 43.716C17.4203 43.244 17.2843 42.676 17.2843 42.012C17.2843 41.38 17.4163 40.832 17.6803 40.368C17.9523 39.904 18.3163 39.544 18.7723 39.288C19.2363 39.032 19.7563 38.904 20.3323 38.904C20.8843 38.904 21.3883 39.024 21.8443 39.264C22.3083 39.504 22.6803 39.856 22.9603 40.32C23.2403 40.784 23.3803 41.348 23.3803 42.012C23.3803 42.62 23.2483 43.16 22.9843 43.632C22.7203 44.104 22.3523 44.476 21.8803 44.748C21.4163 45.012 20.8843 45.144 20.2843 45.144ZM20.2843 44.268C20.6763 44.268 21.0283 44.176 21.3403 43.992C21.6523 43.8 21.9003 43.536 22.0843 43.2C22.2683 42.864 22.3603 42.468 22.3603 42.012C22.3603 41.58 22.2803 41.196 22.1203 40.86C21.9603 40.524 21.7283 40.26 21.4243 40.068C21.1203 39.876 20.7523 39.78 20.3203 39.78C19.8803 39.78 19.5083 39.88 19.2043 40.08C18.9083 40.28 18.6843 40.548 18.5323 40.884C18.3803 41.22 18.3043 41.596 18.3043 42.012C18.3043 42.54 18.4003 42.972 18.5923 43.308C18.7843 43.636 19.0323 43.88 19.3363 44.04C19.6403 44.192 19.9563 44.268 20.2843 44.268ZM24.7785 45V39.048H25.6905L25.7625 39.912C25.9545 39.592 26.2105 39.344 26.5305 39.168C26.8505 38.992 27.2105 38.904 27.6105 38.904C28.0825 38.904 28.4865 39 28.8225 39.192C29.1665 39.384 29.4305 39.676 29.6145 40.068C29.8225 39.708 30.1065 39.424 30.4665 39.216C30.8345 39.008 31.2305 38.904 31.6545 38.904C32.1345 38.904 32.5465 39 32.8905 39.192C33.2425 39.376 33.5145 39.664 33.7065 40.056C33.8985 40.44 33.9945 40.928 33.9945 41.52V45H32.9985V41.628C32.9985 41.012 32.8745 40.548 32.6265 40.236C32.3785 39.924 32.0225 39.768 31.5585 39.768C31.0785 39.768 30.6785 39.956 30.3585 40.332C30.0465 40.7 29.8905 41.228 29.8905 41.916V45H28.8825V41.628C28.8825 41.012 28.7585 40.548 28.5105 40.236C28.2625 39.924 27.9065 39.768 27.4425 39.768C26.9705 39.768 26.5745 39.956 26.2545 40.332C25.9425 40.7 25.7865 41.228 25.7865 41.916V45H24.7785ZM38.1889 45.144C37.6369 45.144 37.1369 45.016 36.6889 44.76C36.2489 44.504 35.9009 44.144 35.6449 43.68C35.3889 43.208 35.2609 42.656 35.2609 42.024C35.2609 41.4 35.3809 40.856 35.6209 40.392C35.8689 39.92 36.2129 39.556 36.6529 39.3C37.1009 39.036 37.6209 38.904 38.2129 38.904C38.7729 38.904 39.2609 39.028 39.6769 39.276C40.0929 39.524 40.4169 39.86 40.6489 40.284C40.8889 40.7 41.0089 41.168 41.0089 41.688C41.0089 41.8 41.0089 41.888 41.0089 41.952C41.0089 42.016 41.0049 42.116 40.9969 42.252H36.2569C36.2809 42.644 36.3729 42.996 36.5329 43.308C36.7009 43.612 36.9249 43.852 37.2049 44.028C37.4929 44.204 37.8209 44.292 38.1889 44.292C38.6049 44.292 38.9529 44.196 39.2329 44.004C39.5129 43.812 39.7169 43.552 39.8449 43.224H40.8409C40.7369 43.592 40.5649 43.92 40.3249 44.208C40.0849 44.496 39.7849 44.724 39.4249 44.892C39.0729 45.06 38.6609 45.144 38.1889 45.144ZM36.2689 41.472H40.0129C39.9889 40.936 39.8049 40.516 39.4609 40.212C39.1169 39.908 38.6929 39.756 38.1889 39.756C37.7089 39.756 37.2809 39.904 36.9049 40.2C36.5369 40.488 36.3249 40.912 36.2689 41.472Z" fill="#828282"/>
</svg>
