<svg width="51" height="49" viewBox="0 0 51 49" fill="none" xmlns="http://www.w3.org/2000/svg">
<path d="M23.3078 3.36046C23.7977 2.96301 24.4094 2.74609 25.0403 2.74609C25.6712 2.74609 26.2828 2.96301 26.7728 3.36046L37.2613 11.858C37.7382 12.2442 38.1229 12.7319 38.3875 13.2857C38.652 13.8395 38.7896 14.4453 38.7903 15.059V27.5C38.7903 28.2293 38.5006 28.9288 37.9848 29.4445C37.4691 29.9602 36.7696 30.25 36.0403 30.25H30.5403C29.8109 30.25 29.1115 29.9602 28.5957 29.4445C28.08 28.9288 27.7903 28.2293 27.7903 27.5V19.25H22.2903V27.5C22.2903 28.2293 22.0006 28.9288 21.4848 29.4445C20.9691 29.9602 20.2696 30.25 19.5403 30.25H14.0403C13.3109 30.25 12.6115 29.9602 12.0957 29.4445C11.58 28.9288 11.2903 28.2293 11.2903 27.5V15.0617C11.2902 14.4471 11.4274 13.8402 11.6919 13.2854C11.9565 12.7307 12.3416 12.242 12.8193 11.8552L23.3078 3.36046ZM35.5315 13.992L25.0403 5.49996L14.549 13.992C14.3899 14.1211 14.2616 14.2841 14.1736 14.4692C14.0855 14.6543 14.04 14.8568 14.0403 15.0617V27.5H19.5403V19.25C19.5403 18.5206 19.83 17.8211 20.3457 17.3054C20.8615 16.7897 21.5609 16.5 22.2903 16.5H27.7903C28.5196 16.5 29.2191 16.7897 29.7348 17.3054C30.2506 17.8211 30.5403 18.5206 30.5403 19.25V27.5H36.0403V15.0617C36.0406 14.8568 35.995 14.6543 35.907 14.4692C35.819 14.2841 35.6907 14.1211 35.5315 13.992Z" fill="black"/>
<path d="M9.45035 45V36.6H10.7224V40.02H14.7904V36.6H16.0624V45H14.7904V41.088H10.7224V45H9.45035ZM20.318 45.144C19.742 45.144 19.222 45.02 18.758 44.772C18.302 44.516 17.938 44.152 17.666 43.68C17.402 43.208 17.27 42.652 17.27 42.012C17.27 41.372 17.406 40.82 17.678 40.356C17.958 39.892 18.33 39.536 18.794 39.288C19.266 39.032 19.79 38.904 20.366 38.904C20.942 38.904 21.462 39.028 21.926 39.276C22.39 39.524 22.762 39.88 23.042 40.344C23.322 40.808 23.462 41.364 23.462 42.012C23.462 42.62 23.326 43.16 23.054 43.632C22.79 44.104 22.422 44.476 21.95 44.748C21.478 45.012 20.934 45.144 20.318 45.144ZM20.33 44.04C20.682 44.04 20.994 43.952 21.266 43.776C21.546 43.6 21.766 43.36 21.926 43.056C22.086 42.744 22.166 42.392 22.166 42C22.166 41.6 22.086 41.252 21.926 40.956C21.774 40.652 21.562 40.42 21.29 40.26C21.018 40.092 20.702 40.008 20.342 40.008C19.966 40.008 19.642 40.096 19.37 40.272C19.106 40.448 18.902 40.688 18.758 40.992C18.622 41.288 18.554 41.628 18.554 42.012C18.554 42.452 18.634 42.824 18.794 43.128C18.962 43.432 19.182 43.66 19.454 43.812C19.726 43.964 20.018 44.04 20.33 44.04ZM24.5993 45V39.048H25.8233L25.8593 39.816C26.0513 39.52 26.3033 39.296 26.6153 39.144C26.9353 38.984 27.2833 38.904 27.6593 38.904C28.1153 38.904 28.5233 39 28.8833 39.192C29.2513 39.376 29.5353 39.668 29.7353 40.068C29.9433 39.7 30.2273 39.416 30.5873 39.216C30.9473 39.008 31.3393 38.904 31.7633 38.904C32.2273 38.904 32.6393 39 32.9993 39.192C33.3593 39.376 33.6393 39.66 33.8393 40.044C34.0473 40.428 34.1513 40.912 34.1513 41.496V45H32.8913V41.664C32.8913 41.128 32.7753 40.716 32.5433 40.428C32.3113 40.14 31.9673 39.996 31.5113 39.996C31.0553 39.996 30.6913 40.156 30.4193 40.476C30.1473 40.796 30.0113 41.24 30.0113 41.808V45H28.7513V41.664C28.7513 41.128 28.6313 40.716 28.3913 40.428C28.1513 40.14 27.8113 39.996 27.3713 39.996C26.9553 39.996 26.5993 40.148 26.3033 40.452C26.0153 40.748 25.8713 41.2 25.8713 41.808V45H24.5993ZM38.1757 45.144C37.5917 45.144 37.0757 45.012 36.6277 44.748C36.1797 44.484 35.8277 44.116 35.5717 43.644C35.3237 43.172 35.1997 42.632 35.1997 42.024C35.1997 41.392 35.3237 40.844 35.5717 40.38C35.8197 39.916 36.1677 39.556 36.6157 39.3C37.0717 39.036 37.5957 38.904 38.1877 38.904C38.7637 38.904 39.2677 39.032 39.6997 39.288C40.1317 39.536 40.4677 39.876 40.7077 40.308C40.9557 40.74 41.0797 41.232 41.0797 41.784C41.0797 41.896 41.0757 41.992 41.0677 42.072C41.0677 42.152 41.0597 42.248 41.0437 42.36H36.4717C36.4957 42.696 36.5797 42.996 36.7237 43.26C36.8677 43.516 37.0637 43.72 37.3117 43.872C37.5597 44.016 37.8437 44.088 38.1637 44.088C38.5077 44.088 38.7997 44.012 39.0397 43.86C39.2877 43.7 39.4717 43.476 39.5917 43.188H40.9117C40.8077 43.548 40.6317 43.876 40.3837 44.172C40.1437 44.468 39.8397 44.704 39.4717 44.88C39.1037 45.056 38.6717 45.144 38.1757 45.144ZM36.4837 41.46H39.7837C39.7677 40.996 39.6037 40.632 39.2917 40.368C38.9797 40.096 38.5997 39.96 38.1517 39.96C37.7517 39.96 37.3877 40.084 37.0597 40.332C36.7317 40.58 36.5397 40.956 36.4837 41.46Z" fill="black"/>
</svg>
