<svg width="51" height="50" viewBox="0 0 51 50" fill="none" xmlns="http://www.w3.org/2000/svg">
<path d="M25.0404 19.9743C28.1878 19.9743 30.7474 17.4148 30.7474 14.2674C30.7474 11.12 28.1878 8.56042 25.0404 8.56042C21.8931 8.56042 19.3335 11.12 19.3335 14.2674C19.3335 17.4148 21.8931 19.9743 25.0404 19.9743ZM25.0404 11.4139C26.6141 11.4139 27.8939 12.6937 27.8939 14.2674C27.8939 15.8411 26.6141 17.1209 25.0404 17.1209C23.4668 17.1209 22.187 15.8411 22.187 14.2674C22.187 12.6937 23.4668 11.4139 25.0404 11.4139Z" fill="#828282"/>
<path d="M24.2132 31.1228C24.4549 31.2948 24.7441 31.3873 25.0407 31.3873C25.3374 31.3873 25.6266 31.2948 25.8682 31.1228C26.302 30.816 36.496 23.4555 36.4546 14.2673C36.4546 7.97396 31.3341 2.85339 25.0407 2.85339C18.7474 2.85339 13.6268 7.97395 13.6268 14.2602C13.5855 23.4555 23.7795 30.816 24.2132 31.1228ZM25.0407 5.70687C29.7618 5.70687 33.6012 9.54622 33.6012 14.2744C33.6311 20.6063 27.3406 26.2918 25.0407 28.1566C22.7423 26.2904 16.4503 20.6034 16.4803 14.2673C16.4803 9.54622 20.3197 5.70687 25.0407 5.70687Z" fill="#828282"/>
<path d="M13.7701 46.2417V37.8417H14.9461L17.8501 43.6737L20.7301 37.8417H21.9181V46.2417H20.9101V39.6657L18.2221 45.0417H17.4661L14.7781 39.6777V46.2417H13.7701ZM25.6159 46.3857C25.2079 46.3857 24.8359 46.3177 24.4999 46.1817C24.1639 46.0457 23.8959 45.8417 23.6959 45.5697C23.5039 45.2897 23.4079 44.9497 23.4079 44.5497C23.4079 44.0857 23.5279 43.7177 23.7679 43.4457C24.0079 43.1657 24.3239 42.9657 24.7159 42.8457C25.1159 42.7177 25.5439 42.6537 25.9999 42.6537H27.6079C27.6079 42.2377 27.5359 41.9097 27.3919 41.6697C27.2559 41.4297 27.0759 41.2577 26.8519 41.1537C26.6279 41.0497 26.3799 40.9977 26.1079 40.9977C25.7159 40.9977 25.3759 41.0937 25.0879 41.2857C24.8079 41.4697 24.6319 41.7577 24.5599 42.1497H23.5279C23.5679 41.7177 23.7119 41.3537 23.9599 41.0577C24.2079 40.7617 24.5199 40.5377 24.8959 40.3857C25.2799 40.2257 25.6839 40.1457 26.1079 40.1457C26.7079 40.1457 27.1919 40.2577 27.5599 40.4817C27.9279 40.6977 28.1959 40.9897 28.3639 41.3577C28.5319 41.7257 28.6159 42.1337 28.6159 42.5817V44.4057C28.6159 44.7017 28.6519 44.9257 28.7239 45.0777C28.7959 45.2297 28.9799 45.3217 29.2759 45.3537V46.2417C29.0119 46.2417 28.7719 46.2097 28.5559 46.1457C28.3399 46.0737 28.1559 45.9617 28.0039 45.8097C27.8599 45.6497 27.7559 45.4417 27.6919 45.1857C27.4919 45.5217 27.2159 45.8057 26.8639 46.0377C26.5199 46.2697 26.1039 46.3857 25.6159 46.3857ZM25.7719 45.5337C26.1719 45.5337 26.5079 45.4337 26.7799 45.2337C27.0519 45.0257 27.2559 44.7617 27.3919 44.4417C27.5359 44.1217 27.6079 43.7897 27.6079 43.4457V43.4337H26.0839C25.8039 43.4337 25.5399 43.4657 25.2919 43.5297C25.0439 43.5857 24.8439 43.6937 24.6919 43.8537C24.5399 44.0057 24.4639 44.2217 24.4639 44.5017C24.4639 44.8617 24.5919 45.1257 24.8479 45.2937C25.1039 45.4537 25.4119 45.5337 25.7719 45.5337ZM30.4914 48.8817V40.2897H31.4034L31.4994 41.2737C31.6914 40.9857 31.9634 40.7257 32.3154 40.4937C32.6754 40.2617 33.1314 40.1457 33.6834 40.1457C34.2834 40.1457 34.8034 40.2817 35.2434 40.5537C35.6834 40.8257 36.0234 41.1977 36.2634 41.6697C36.5034 42.1417 36.6234 42.6777 36.6234 43.2777C36.6234 43.8697 36.5034 44.4017 36.2634 44.8737C36.0234 45.3457 35.6794 45.7177 35.2314 45.9897C34.7914 46.2537 34.2714 46.3857 33.6714 46.3857C33.1834 46.3857 32.7474 46.2857 32.3634 46.0857C31.9874 45.8857 31.6994 45.6057 31.4994 45.2457V48.8817H30.4914ZM33.5634 45.5097C33.9714 45.5097 34.3274 45.4177 34.6314 45.2337C34.9354 45.0417 35.1714 44.7777 35.3394 44.4417C35.5154 44.0977 35.6034 43.7057 35.6034 43.2657C35.6034 42.8417 35.5194 42.4617 35.3514 42.1257C35.1914 41.7817 34.9594 41.5137 34.6554 41.3217C34.3514 41.1217 33.9874 41.0217 33.5634 41.0217C33.1634 41.0217 32.8074 41.1177 32.4954 41.3097C32.1914 41.4937 31.9514 41.7537 31.7754 42.0897C31.6074 42.4257 31.5234 42.8177 31.5234 43.2657C31.5234 43.6817 31.6074 44.0617 31.7754 44.4057C31.9434 44.7417 32.1794 45.0097 32.4834 45.2097C32.7874 45.4097 33.1474 45.5097 33.5634 45.5097Z" fill="#828282"/>
</svg>
