<svg width="51" height="50" viewBox="0 0 51 50" fill="none" xmlns="http://www.w3.org/2000/svg">
<path d="M25.0404 19.9743C28.1878 19.9743 30.7474 17.4148 30.7474 14.2674C30.7474 11.12 28.1878 8.56042 25.0404 8.56042C21.8931 8.56042 19.3335 11.12 19.3335 14.2674C19.3335 17.4148 21.8931 19.9743 25.0404 19.9743ZM25.0404 11.4139C26.6141 11.4139 27.8939 12.6937 27.8939 14.2674C27.8939 15.8411 26.6141 17.1209 25.0404 17.1209C23.4668 17.1209 22.187 15.8411 22.187 14.2674C22.187 12.6937 23.4668 11.4139 25.0404 11.4139Z" fill="black"/>
<path d="M24.2132 31.1228C24.4549 31.2948 24.7441 31.3873 25.0407 31.3873C25.3374 31.3873 25.6266 31.2948 25.8682 31.1228C26.302 30.816 36.496 23.4555 36.4546 14.2673C36.4546 7.97396 31.3341 2.85339 25.0407 2.85339C18.7474 2.85339 13.6268 7.97395 13.6268 14.2602C13.5855 23.4555 23.7795 30.816 24.2132 31.1228ZM25.0407 5.70687C29.7618 5.70687 33.6012 9.54622 33.6012 14.2744C33.6311 20.6063 27.3406 26.2918 25.0407 28.1566C22.7423 26.2904 16.4503 20.6034 16.4803 14.2673C16.4803 9.54622 20.3197 5.70687 25.0407 5.70687Z" fill="black"/>
<path d="M13.8742 46.2417V37.8417H15.3742L18.0262 43.4697L20.6422 37.8417H22.1422V46.2417H20.8702V40.1217L18.5062 45.1017H17.5222L15.1462 40.1217V46.2417H13.8742ZM25.5054 46.3857C25.1214 46.3857 24.7694 46.3177 24.4494 46.1817C24.1294 46.0377 23.8734 45.8297 23.6814 45.5577C23.4894 45.2857 23.3934 44.9577 23.3934 44.5737C23.3934 44.1177 23.5054 43.7537 23.7294 43.4817C23.9614 43.2017 24.2694 42.9977 24.6534 42.8697C25.0454 42.7337 25.4734 42.6657 25.9374 42.6657H27.4494C27.4494 42.3217 27.3934 42.0457 27.2814 41.8377C27.1694 41.6217 27.0174 41.4657 26.8254 41.3697C26.6334 41.2657 26.4094 41.2137 26.1534 41.2137C25.8174 41.2137 25.5214 41.2937 25.2654 41.4537C25.0174 41.6057 24.8614 41.8497 24.7974 42.1857H23.5134C23.5534 41.7537 23.6974 41.3857 23.9454 41.0817C24.2014 40.7777 24.5254 40.5457 24.9174 40.3857C25.3094 40.2257 25.7254 40.1457 26.1654 40.1457C26.7414 40.1457 27.2174 40.2537 27.5934 40.4697C27.9774 40.6777 28.2614 40.9697 28.4454 41.3457C28.6374 41.7217 28.7334 42.1497 28.7334 42.6297V44.4537C28.7414 44.6857 28.7894 44.8577 28.8774 44.9697C28.9734 45.0737 29.1414 45.1337 29.3814 45.1497V46.2417C29.0614 46.2417 28.7814 46.2057 28.5414 46.1337C28.3094 46.0617 28.1174 45.9537 27.9654 45.8097C27.8134 45.6577 27.6934 45.4657 27.6054 45.2337C27.4134 45.5537 27.1334 45.8257 26.7654 46.0497C26.3974 46.2737 25.9774 46.3857 25.5054 46.3857ZM25.8054 45.3417C26.1334 45.3417 26.4214 45.2617 26.6694 45.1017C26.9174 44.9337 27.1094 44.7177 27.2454 44.4537C27.3814 44.1817 27.4494 43.8897 27.4494 43.5777V43.5537H26.0334C25.8014 43.5537 25.5814 43.5817 25.3734 43.6377C25.1734 43.6937 25.0094 43.7897 24.8814 43.9257C24.7614 44.0537 24.7014 44.2337 24.7014 44.4657C24.7014 44.7697 24.8094 44.9937 25.0254 45.1377C25.2414 45.2737 25.5014 45.3417 25.8054 45.3417ZM30.3591 48.8817V40.2897H31.5831L31.6311 41.1897C31.8391 40.8857 32.1191 40.6377 32.4711 40.4457C32.8231 40.2457 33.2391 40.1457 33.7191 40.1457C34.3111 40.1457 34.8191 40.2857 35.2431 40.5657C35.6671 40.8377 35.9951 41.2097 36.2271 41.6817C36.4591 42.1457 36.5751 42.6697 36.5751 43.2537C36.5751 43.8377 36.4591 44.3697 36.2271 44.8497C35.9951 45.3217 35.6631 45.6977 35.2311 45.9777C34.8071 46.2497 34.3031 46.3857 33.7191 46.3857C33.2231 46.3857 32.7951 46.2857 32.4351 46.0857C32.0831 45.8777 31.8151 45.6257 31.6311 45.3297V48.8817H30.3591ZM33.4551 45.2697C33.8231 45.2697 34.1431 45.1817 34.4151 45.0057C34.6871 44.8297 34.8991 44.5897 35.0511 44.2857C35.2031 43.9817 35.2791 43.6377 35.2791 43.2537C35.2791 42.8537 35.1991 42.5057 35.0391 42.2097C34.8871 41.9057 34.6751 41.6697 34.4031 41.5017C34.1311 41.3337 33.8151 41.2497 33.4551 41.2497C33.1031 41.2497 32.7911 41.3377 32.5191 41.5137C32.2471 41.6817 32.0311 41.9177 31.8711 42.2217C31.7191 42.5177 31.6431 42.8657 31.6431 43.2657C31.6431 43.6337 31.7191 43.9737 31.8711 44.2857C32.0231 44.5897 32.2351 44.8297 32.5071 45.0057C32.7791 45.1817 33.0951 45.2697 33.4551 45.2697Z" fill="black"/>
</svg>
