<svg width="282" height="64" viewBox="0 0 282 64" fill="none" xmlns="http://www.w3.org/2000/svg">
<path d="M90.5623 38V25.4H92.4703L98.7883 34.85V25.4H100.696V38H98.7883L92.4703 28.55V38H90.5623ZM106.967 38.216C106.091 38.216 105.317 38.018 104.645 37.622C103.973 37.226 103.445 36.674 103.061 35.966C102.689 35.258 102.503 34.448 102.503 33.536C102.503 32.588 102.689 31.766 103.061 31.07C103.433 30.374 103.955 29.834 104.627 29.45C105.311 29.054 106.097 28.856 106.985 28.856C107.849 28.856 108.605 29.048 109.253 29.432C109.901 29.804 110.405 30.314 110.765 30.962C111.137 31.61 111.323 32.348 111.323 33.176C111.323 33.344 111.317 33.488 111.305 33.608C111.305 33.728 111.293 33.872 111.269 34.04H104.411C104.447 34.544 104.573 34.994 104.789 35.39C105.005 35.774 105.299 36.08 105.671 36.308C106.043 36.524 106.469 36.632 106.949 36.632C107.465 36.632 107.903 36.518 108.263 36.29C108.635 36.05 108.911 35.714 109.091 35.282H111.071C110.915 35.822 110.651 36.314 110.279 36.758C109.919 37.202 109.463 37.556 108.911 37.82C108.359 38.084 107.711 38.216 106.967 38.216ZM104.429 32.69H109.379C109.355 31.994 109.109 31.448 108.641 31.052C108.173 30.644 107.603 30.44 106.931 30.44C106.331 30.44 105.785 30.626 105.293 30.998C104.801 31.37 104.513 31.934 104.429 32.69ZM114.365 38L111.737 29.072H113.645L115.391 35.966L117.299 29.072H119.369L121.277 35.948L123.005 29.072H124.877L122.249 37.982H120.233L118.307 31.196L116.381 38H114.365ZM134.921 38.216C134.057 38.216 133.271 38.066 132.563 37.766C131.867 37.454 131.315 37.004 130.907 36.416C130.499 35.816 130.289 35.078 130.277 34.202H132.275C132.287 34.922 132.533 35.504 133.013 35.948C133.493 36.38 134.129 36.596 134.921 36.596C135.605 36.596 136.163 36.434 136.595 36.11C137.039 35.774 137.261 35.312 137.261 34.724C137.261 34.364 137.201 34.07 137.081 33.842C136.961 33.602 136.763 33.392 136.487 33.212C136.223 33.032 135.869 32.864 135.425 32.708C134.981 32.54 134.435 32.348 133.787 32.132C133.067 31.88 132.473 31.598 132.005 31.286C131.549 30.962 131.207 30.59 130.979 30.17C130.751 29.738 130.637 29.252 130.637 28.712C130.637 27.944 130.817 27.302 131.177 26.786C131.549 26.258 132.047 25.862 132.671 25.598C133.295 25.322 133.985 25.184 134.741 25.184C135.509 25.184 136.199 25.322 136.811 25.598C137.435 25.862 137.933 26.264 138.305 26.804C138.689 27.332 138.887 27.98 138.899 28.748H136.865C136.865 28.196 136.661 27.734 136.253 27.362C135.857 26.99 135.329 26.804 134.669 26.804C134.105 26.792 133.625 26.936 133.229 27.236C132.833 27.536 132.635 27.974 132.635 28.55C132.635 28.958 132.749 29.288 132.977 29.54C133.205 29.792 133.547 30.014 134.003 30.206C134.459 30.398 135.029 30.614 135.713 30.854C136.157 30.998 136.589 31.166 137.009 31.358C137.441 31.55 137.825 31.79 138.161 32.078C138.497 32.354 138.761 32.696 138.953 33.104C139.157 33.512 139.259 34.01 139.259 34.598C139.259 35.366 139.061 36.02 138.665 36.56C138.281 37.088 137.759 37.496 137.099 37.784C136.451 38.072 135.725 38.216 134.921 38.216ZM145.111 38.216C144.235 38.216 143.461 38.018 142.789 37.622C142.117 37.226 141.589 36.674 141.205 35.966C140.833 35.258 140.647 34.448 140.647 33.536C140.647 32.588 140.833 31.766 141.205 31.07C141.577 30.374 142.099 29.834 142.771 29.45C143.455 29.054 144.241 28.856 145.129 28.856C145.993 28.856 146.749 29.048 147.397 29.432C148.045 29.804 148.549 30.314 148.909 30.962C149.281 31.61 149.467 32.348 149.467 33.176C149.467 33.344 149.461 33.488 149.449 33.608C149.449 33.728 149.437 33.872 149.413 34.04H142.555C142.591 34.544 142.717 34.994 142.933 35.39C143.149 35.774 143.443 36.08 143.815 36.308C144.187 36.524 144.613 36.632 145.093 36.632C145.609 36.632 146.047 36.518 146.407 36.29C146.779 36.05 147.055 35.714 147.235 35.282H149.215C149.059 35.822 148.795 36.314 148.423 36.758C148.063 37.202 147.607 37.556 147.055 37.82C146.503 38.084 145.855 38.216 145.111 38.216ZM142.573 32.69H147.523C147.499 31.994 147.253 31.448 146.785 31.052C146.317 30.644 145.747 30.44 145.075 30.44C144.475 30.44 143.929 30.626 143.437 30.998C142.945 31.37 142.657 31.934 142.573 32.69ZM154.607 38.216C153.911 38.216 153.275 38.096 152.699 37.856C152.123 37.604 151.655 37.25 151.295 36.794C150.935 36.338 150.725 35.804 150.665 35.192H152.591C152.675 35.624 152.897 35.978 153.257 36.254C153.617 36.53 154.067 36.668 154.607 36.668C155.087 36.668 155.477 36.566 155.777 36.362C156.077 36.146 156.227 35.864 156.227 35.516C156.227 35.216 156.125 34.982 155.921 34.814C155.729 34.646 155.477 34.514 155.165 34.418C154.865 34.322 154.535 34.238 154.175 34.166C153.623 34.034 153.101 33.872 152.609 33.68C152.129 33.488 151.739 33.224 151.439 32.888C151.139 32.552 150.989 32.102 150.989 31.538C150.989 30.986 151.133 30.512 151.421 30.116C151.721 29.708 152.129 29.396 152.645 29.18C153.161 28.964 153.743 28.856 154.391 28.856C155.363 28.856 156.173 29.102 156.821 29.594C157.469 30.074 157.829 30.782 157.901 31.718H156.065C156.017 31.298 155.837 30.974 155.525 30.746C155.225 30.518 154.835 30.404 154.355 30.404C153.911 30.404 153.551 30.494 153.275 30.674C152.999 30.842 152.861 31.1 152.861 31.448C152.861 31.688 152.957 31.892 153.149 32.06C153.341 32.216 153.587 32.348 153.887 32.456C154.199 32.552 154.523 32.642 154.859 32.726C155.471 32.858 156.017 33.02 156.497 33.212C156.977 33.404 157.361 33.674 157.649 34.022C157.937 34.37 158.087 34.85 158.099 35.462C158.099 36.014 157.943 36.5 157.631 36.92C157.331 37.328 156.917 37.646 156.389 37.874C155.873 38.102 155.279 38.216 154.607 38.216ZM163.379 38.216C162.683 38.216 162.047 38.096 161.471 37.856C160.895 37.604 160.427 37.25 160.067 36.794C159.707 36.338 159.497 35.804 159.437 35.192H161.363C161.447 35.624 161.669 35.978 162.029 36.254C162.389 36.53 162.839 36.668 163.379 36.668C163.859 36.668 164.249 36.566 164.549 36.362C164.849 36.146 164.999 35.864 164.999 35.516C164.999 35.216 164.897 34.982 164.693 34.814C164.501 34.646 164.249 34.514 163.937 34.418C163.637 34.322 163.307 34.238 162.947 34.166C162.395 34.034 161.873 33.872 161.381 33.68C160.901 33.488 160.511 33.224 160.211 32.888C159.911 32.552 159.761 32.102 159.761 31.538C159.761 30.986 159.905 30.512 160.193 30.116C160.493 29.708 160.901 29.396 161.417 29.18C161.933 28.964 162.515 28.856 163.163 28.856C164.135 28.856 164.945 29.102 165.593 29.594C166.241 30.074 166.601 30.782 166.673 31.718H164.837C164.789 31.298 164.609 30.974 164.297 30.746C163.997 30.518 163.607 30.404 163.127 30.404C162.683 30.404 162.323 30.494 162.047 30.674C161.771 30.842 161.633 31.1 161.633 31.448C161.633 31.688 161.729 31.892 161.921 32.06C162.113 32.216 162.359 32.348 162.659 32.456C162.971 32.552 163.295 32.642 163.631 32.726C164.243 32.858 164.789 33.02 165.269 33.212C165.749 33.404 166.133 33.674 166.421 34.022C166.709 34.37 166.859 34.85 166.871 35.462C166.871 36.014 166.715 36.5 166.403 36.92C166.103 37.328 165.689 37.646 165.161 37.874C164.645 38.102 164.051 38.216 163.379 38.216ZM169.684 27.506C169.336 27.506 169.036 27.386 168.784 27.146C168.544 26.894 168.424 26.588 168.424 26.228C168.424 25.88 168.544 25.586 168.784 25.346C169.036 25.106 169.336 24.986 169.684 24.986C170.044 24.986 170.344 25.106 170.584 25.346C170.836 25.586 170.962 25.88 170.962 26.228C170.962 26.588 170.836 26.894 170.584 27.146C170.344 27.386 170.044 27.506 169.684 27.506ZM168.73 38V29.072H170.638V38H168.73ZM177.053 38.216C176.189 38.216 175.409 38.03 174.713 37.658C174.029 37.274 173.483 36.728 173.075 36.02C172.679 35.312 172.481 34.478 172.481 33.518C172.481 32.558 172.685 31.73 173.093 31.034C173.513 30.338 174.071 29.804 174.767 29.432C175.475 29.048 176.261 28.856 177.125 28.856C177.989 28.856 178.769 29.042 179.465 29.414C180.161 29.786 180.719 30.32 181.139 31.016C181.559 31.712 181.769 32.546 181.769 33.518C181.769 34.43 181.565 35.24 181.157 35.948C180.761 36.656 180.209 37.214 179.501 37.622C178.793 38.018 177.977 38.216 177.053 38.216ZM177.071 36.56C177.599 36.56 178.067 36.428 178.475 36.164C178.895 35.9 179.225 35.54 179.465 35.084C179.705 34.616 179.825 34.088 179.825 33.5C179.825 32.9 179.705 32.378 179.465 31.934C179.237 31.478 178.919 31.13 178.511 30.89C178.103 30.638 177.629 30.512 177.089 30.512C176.525 30.512 176.039 30.644 175.631 30.908C175.235 31.172 174.929 31.532 174.713 31.988C174.509 32.432 174.407 32.942 174.407 33.518C174.407 34.178 174.527 34.736 174.767 35.192C175.019 35.648 175.349 35.99 175.757 36.218C176.165 36.446 176.603 36.56 177.071 36.56ZM183.475 38V29.072H185.311L185.347 30.386C185.647 29.894 186.061 29.516 186.589 29.252C187.129 28.988 187.699 28.856 188.299 28.856C189.343 28.856 190.189 29.186 190.837 29.846C191.485 30.494 191.809 31.466 191.809 32.762V38H189.901V32.996C189.901 32.192 189.721 31.574 189.361 31.142C189.001 30.698 188.461 30.476 187.741 30.476C187.033 30.476 186.463 30.722 186.031 31.214C185.599 31.694 185.383 32.36 185.383 33.212V38H183.475Z" fill="white"/>
<rect y="10" width="282" height="43" rx="21.5" fill="#8DBF58"/>
<path d="M85.742 38V25.4H90.296C91.544 25.4 92.51 25.688 93.194 26.264C93.89 26.84 94.238 27.59 94.238 28.514C94.238 29.21 94.058 29.792 93.698 30.26C93.35 30.716 92.912 31.04 92.384 31.232C92.876 31.388 93.302 31.622 93.662 31.934C94.022 32.246 94.304 32.612 94.508 33.032C94.712 33.452 94.814 33.92 94.814 34.436C94.814 35.108 94.658 35.714 94.346 36.254C94.046 36.794 93.596 37.22 92.996 37.532C92.396 37.844 91.646 38 90.746 38H85.742ZM87.65 36.38H90.404C91.208 36.38 91.82 36.206 92.24 35.858C92.672 35.51 92.888 34.982 92.888 34.274C92.888 33.554 92.66 33.02 92.204 32.672C91.748 32.324 91.136 32.15 90.368 32.15H87.65V36.38ZM87.65 30.566H90.152C90.86 30.566 91.394 30.41 91.754 30.098C92.114 29.786 92.294 29.348 92.294 28.784C92.294 28.22 92.114 27.782 91.754 27.47C91.406 27.158 90.854 27.002 90.098 27.002H87.65V30.566ZM100.617 38.216C99.7412 38.216 98.9672 38.018 98.2952 37.622C97.6232 37.226 97.0952 36.674 96.7112 35.966C96.3392 35.258 96.1532 34.448 96.1532 33.536C96.1532 32.588 96.3392 31.766 96.7112 31.07C97.0832 30.374 97.6052 29.834 98.2772 29.45C98.9612 29.054 99.7472 28.856 100.635 28.856C101.499 28.856 102.255 29.048 102.903 29.432C103.551 29.804 104.055 30.314 104.415 30.962C104.787 31.61 104.973 32.348 104.973 33.176C104.973 33.344 104.967 33.488 104.955 33.608C104.955 33.728 104.943 33.872 104.919 34.04H98.0612C98.0972 34.544 98.2232 34.994 98.4392 35.39C98.6552 35.774 98.9492 36.08 99.3212 36.308C99.6932 36.524 100.119 36.632 100.599 36.632C101.115 36.632 101.553 36.518 101.913 36.29C102.285 36.05 102.561 35.714 102.741 35.282H104.721C104.565 35.822 104.301 36.314 103.929 36.758C103.569 37.202 103.113 37.556 102.561 37.82C102.009 38.084 101.361 38.216 100.617 38.216ZM98.0792 32.69H103.029C103.005 31.994 102.759 31.448 102.291 31.052C101.823 30.644 101.253 30.44 100.581 30.44C99.9812 30.44 99.4352 30.626 98.9432 30.998C98.4512 31.37 98.1632 31.934 98.0792 32.69ZM110.223 42.176C109.467 42.176 108.765 42.086 108.117 41.906C107.469 41.726 106.947 41.426 106.551 41.006C106.167 40.598 105.975 40.052 105.975 39.368C105.975 38.912 106.077 38.528 106.281 38.216C106.485 37.904 106.773 37.646 107.145 37.442C106.845 37.274 106.611 37.058 106.443 36.794C106.275 36.53 106.191 36.224 106.191 35.876C106.191 35.12 106.539 34.526 107.235 34.094C106.983 33.818 106.785 33.506 106.641 33.158C106.497 32.81 106.425 32.432 106.425 32.024C106.425 31.376 106.581 30.818 106.893 30.35C107.205 29.87 107.631 29.504 108.171 29.252C108.711 28.988 109.329 28.856 110.025 28.856C110.541 28.856 111.015 28.928 111.447 29.072H114.579V30.566H113.265C113.373 30.794 113.457 31.028 113.517 31.268C113.589 31.508 113.625 31.76 113.625 32.024C113.625 32.684 113.463 33.254 113.139 33.734C112.827 34.202 112.401 34.568 111.861 34.832C111.321 35.084 110.709 35.21 110.025 35.21C109.713 35.21 109.425 35.18 109.161 35.12C108.897 35.048 108.633 34.952 108.369 34.832C108.081 34.976 107.937 35.198 107.937 35.498C107.937 36.062 108.411 36.344 109.359 36.344H110.925C111.621 36.344 112.221 36.44 112.725 36.632C113.241 36.812 113.637 37.106 113.913 37.514C114.201 37.922 114.345 38.456 114.345 39.116C114.345 39.764 114.153 40.316 113.769 40.772C113.397 41.228 112.899 41.576 112.275 41.816C111.651 42.056 110.967 42.176 110.223 42.176ZM110.205 40.646C110.853 40.646 111.405 40.532 111.861 40.304C112.317 40.076 112.545 39.728 112.545 39.26C112.545 38.396 111.987 37.964 110.871 37.964H109.449C108.921 37.964 108.507 38.072 108.207 38.288C107.907 38.504 107.757 38.828 107.757 39.26C107.757 39.596 107.871 39.866 108.099 40.07C108.327 40.274 108.627 40.418 108.999 40.502C109.371 40.598 109.773 40.646 110.205 40.646ZM110.007 33.68C110.547 33.68 110.985 33.524 111.321 33.212C111.669 32.9 111.843 32.504 111.843 32.024C111.843 31.556 111.669 31.166 111.321 30.854C110.985 30.542 110.547 30.386 110.007 30.386C109.467 30.386 109.029 30.542 108.693 30.854C108.369 31.166 108.207 31.556 108.207 32.024C108.207 32.504 108.363 32.9 108.675 33.212C108.999 33.524 109.443 33.68 110.007 33.68ZM117.069 27.506C116.721 27.506 116.421 27.386 116.169 27.146C115.929 26.894 115.809 26.588 115.809 26.228C115.809 25.88 115.929 25.586 116.169 25.346C116.421 25.106 116.721 24.986 117.069 24.986C117.429 24.986 117.729 25.106 117.969 25.346C118.221 25.586 118.347 25.88 118.347 26.228C118.347 26.588 118.221 26.894 117.969 27.146C117.729 27.386 117.429 27.506 117.069 27.506ZM116.115 38V29.072H118.023V38H116.115ZM120.19 38V29.072H122.026L122.062 30.386C122.362 29.894 122.776 29.516 123.304 29.252C123.844 28.988 124.414 28.856 125.014 28.856C126.058 28.856 126.904 29.186 127.552 29.846C128.2 30.494 128.524 31.466 128.524 32.762V38H126.616V32.996C126.616 32.192 126.436 31.574 126.076 31.142C125.716 30.698 125.176 30.476 124.456 30.476C123.748 30.476 123.178 30.722 122.746 31.214C122.314 31.694 122.098 32.36 122.098 33.212V38H120.19ZM139.259 38.216C138.395 38.216 137.609 38.066 136.901 37.766C136.205 37.454 135.653 37.004 135.245 36.416C134.837 35.816 134.627 35.078 134.615 34.202H136.613C136.625 34.922 136.871 35.504 137.351 35.948C137.831 36.38 138.467 36.596 139.259 36.596C139.943 36.596 140.501 36.434 140.933 36.11C141.377 35.774 141.599 35.312 141.599 34.724C141.599 34.364 141.539 34.07 141.419 33.842C141.299 33.602 141.101 33.392 140.825 33.212C140.561 33.032 140.207 32.864 139.763 32.708C139.319 32.54 138.773 32.348 138.125 32.132C137.405 31.88 136.811 31.598 136.343 31.286C135.887 30.962 135.545 30.59 135.317 30.17C135.089 29.738 134.975 29.252 134.975 28.712C134.975 27.944 135.155 27.302 135.515 26.786C135.887 26.258 136.385 25.862 137.009 25.598C137.633 25.322 138.323 25.184 139.079 25.184C139.847 25.184 140.537 25.322 141.149 25.598C141.773 25.862 142.271 26.264 142.643 26.804C143.027 27.332 143.225 27.98 143.237 28.748H141.203C141.203 28.196 140.999 27.734 140.591 27.362C140.195 26.99 139.667 26.804 139.007 26.804C138.443 26.792 137.963 26.936 137.567 27.236C137.171 27.536 136.973 27.974 136.973 28.55C136.973 28.958 137.087 29.288 137.315 29.54C137.543 29.792 137.885 30.014 138.341 30.206C138.797 30.398 139.367 30.614 140.051 30.854C140.495 30.998 140.927 31.166 141.347 31.358C141.779 31.55 142.163 31.79 142.499 32.078C142.835 32.354 143.099 32.696 143.291 33.104C143.495 33.512 143.597 34.01 143.597 34.598C143.597 35.366 143.399 36.02 143.003 36.56C142.619 37.088 142.097 37.496 141.437 37.784C140.789 38.072 140.063 38.216 139.259 38.216ZM149.449 38.216C148.573 38.216 147.799 38.018 147.127 37.622C146.455 37.226 145.927 36.674 145.543 35.966C145.171 35.258 144.985 34.448 144.985 33.536C144.985 32.588 145.171 31.766 145.543 31.07C145.915 30.374 146.437 29.834 147.109 29.45C147.793 29.054 148.579 28.856 149.467 28.856C150.331 28.856 151.087 29.048 151.735 29.432C152.383 29.804 152.887 30.314 153.247 30.962C153.619 31.61 153.805 32.348 153.805 33.176C153.805 33.344 153.799 33.488 153.787 33.608C153.787 33.728 153.775 33.872 153.751 34.04H146.893C146.929 34.544 147.055 34.994 147.271 35.39C147.487 35.774 147.781 36.08 148.153 36.308C148.525 36.524 148.951 36.632 149.431 36.632C149.947 36.632 150.385 36.518 150.745 36.29C151.117 36.05 151.393 35.714 151.573 35.282H153.553C153.397 35.822 153.133 36.314 152.761 36.758C152.401 37.202 151.945 37.556 151.393 37.82C150.841 38.084 150.193 38.216 149.449 38.216ZM146.911 32.69H151.861C151.837 31.994 151.591 31.448 151.123 31.052C150.655 30.644 150.085 30.44 149.413 30.44C148.813 30.44 148.267 30.626 147.775 30.998C147.283 31.37 146.995 31.934 146.911 32.69ZM158.945 38.216C158.249 38.216 157.613 38.096 157.037 37.856C156.461 37.604 155.993 37.25 155.633 36.794C155.273 36.338 155.063 35.804 155.003 35.192H156.929C157.013 35.624 157.235 35.978 157.595 36.254C157.955 36.53 158.405 36.668 158.945 36.668C159.425 36.668 159.815 36.566 160.115 36.362C160.415 36.146 160.565 35.864 160.565 35.516C160.565 35.216 160.463 34.982 160.259 34.814C160.067 34.646 159.815 34.514 159.503 34.418C159.203 34.322 158.873 34.238 158.513 34.166C157.961 34.034 157.439 33.872 156.947 33.68C156.467 33.488 156.077 33.224 155.777 32.888C155.477 32.552 155.327 32.102 155.327 31.538C155.327 30.986 155.471 30.512 155.759 30.116C156.059 29.708 156.467 29.396 156.983 29.18C157.499 28.964 158.081 28.856 158.729 28.856C159.701 28.856 160.511 29.102 161.159 29.594C161.807 30.074 162.167 30.782 162.239 31.718H160.403C160.355 31.298 160.175 30.974 159.863 30.746C159.563 30.518 159.173 30.404 158.693 30.404C158.249 30.404 157.889 30.494 157.613 30.674C157.337 30.842 157.199 31.1 157.199 31.448C157.199 31.688 157.295 31.892 157.487 32.06C157.679 32.216 157.925 32.348 158.225 32.456C158.537 32.552 158.861 32.642 159.197 32.726C159.809 32.858 160.355 33.02 160.835 33.212C161.315 33.404 161.699 33.674 161.987 34.022C162.275 34.37 162.425 34.85 162.437 35.462C162.437 36.014 162.281 36.5 161.969 36.92C161.669 37.328 161.255 37.646 160.727 37.874C160.211 38.102 159.617 38.216 158.945 38.216ZM167.717 38.216C167.021 38.216 166.385 38.096 165.809 37.856C165.233 37.604 164.765 37.25 164.405 36.794C164.045 36.338 163.835 35.804 163.775 35.192H165.701C165.785 35.624 166.007 35.978 166.367 36.254C166.727 36.53 167.177 36.668 167.717 36.668C168.197 36.668 168.587 36.566 168.887 36.362C169.187 36.146 169.337 35.864 169.337 35.516C169.337 35.216 169.235 34.982 169.031 34.814C168.839 34.646 168.587 34.514 168.275 34.418C167.975 34.322 167.645 34.238 167.285 34.166C166.733 34.034 166.211 33.872 165.719 33.68C165.239 33.488 164.849 33.224 164.549 32.888C164.249 32.552 164.099 32.102 164.099 31.538C164.099 30.986 164.243 30.512 164.531 30.116C164.831 29.708 165.239 29.396 165.755 29.18C166.271 28.964 166.853 28.856 167.501 28.856C168.473 28.856 169.283 29.102 169.931 29.594C170.579 30.074 170.939 30.782 171.011 31.718H169.175C169.127 31.298 168.947 30.974 168.635 30.746C168.335 30.518 167.945 30.404 167.465 30.404C167.021 30.404 166.661 30.494 166.385 30.674C166.109 30.842 165.971 31.1 165.971 31.448C165.971 31.688 166.067 31.892 166.259 32.06C166.451 32.216 166.697 32.348 166.997 32.456C167.309 32.552 167.633 32.642 167.969 32.726C168.581 32.858 169.127 33.02 169.607 33.212C170.087 33.404 170.471 33.674 170.759 34.022C171.047 34.37 171.197 34.85 171.209 35.462C171.209 36.014 171.053 36.5 170.741 36.92C170.441 37.328 170.027 37.646 169.499 37.874C168.983 38.102 168.389 38.216 167.717 38.216ZM174.022 27.506C173.674 27.506 173.374 27.386 173.122 27.146C172.882 26.894 172.762 26.588 172.762 26.228C172.762 25.88 172.882 25.586 173.122 25.346C173.374 25.106 173.674 24.986 174.022 24.986C174.382 24.986 174.682 25.106 174.922 25.346C175.174 25.586 175.3 25.88 175.3 26.228C175.3 26.588 175.174 26.894 174.922 27.146C174.682 27.386 174.382 27.506 174.022 27.506ZM173.068 38V29.072H174.976V38H173.068ZM181.391 38.216C180.527 38.216 179.747 38.03 179.051 37.658C178.367 37.274 177.821 36.728 177.413 36.02C177.017 35.312 176.819 34.478 176.819 33.518C176.819 32.558 177.023 31.73 177.431 31.034C177.851 30.338 178.409 29.804 179.105 29.432C179.813 29.048 180.599 28.856 181.463 28.856C182.327 28.856 183.107 29.042 183.803 29.414C184.499 29.786 185.057 30.32 185.477 31.016C185.897 31.712 186.107 32.546 186.107 33.518C186.107 34.43 185.903 35.24 185.495 35.948C185.099 36.656 184.547 37.214 183.839 37.622C183.131 38.018 182.315 38.216 181.391 38.216ZM181.409 36.56C181.937 36.56 182.405 36.428 182.813 36.164C183.233 35.9 183.563 35.54 183.803 35.084C184.043 34.616 184.163 34.088 184.163 33.5C184.163 32.9 184.043 32.378 183.803 31.934C183.575 31.478 183.257 31.13 182.849 30.89C182.441 30.638 181.967 30.512 181.427 30.512C180.863 30.512 180.377 30.644 179.969 30.908C179.573 31.172 179.267 31.532 179.051 31.988C178.847 32.432 178.745 32.942 178.745 33.518C178.745 34.178 178.865 34.736 179.105 35.192C179.357 35.648 179.687 35.99 180.095 36.218C180.503 36.446 180.941 36.56 181.409 36.56ZM187.813 38V29.072H189.649L189.685 30.386C189.985 29.894 190.399 29.516 190.927 29.252C191.467 28.988 192.037 28.856 192.637 28.856C193.681 28.856 194.527 29.186 195.175 29.846C195.823 30.494 196.147 31.466 196.147 32.762V38H194.239V32.996C194.239 32.192 194.059 31.574 193.699 31.142C193.339 30.698 192.799 30.476 192.079 30.476C191.371 30.476 190.801 30.722 190.369 31.214C189.937 31.694 189.721 32.36 189.721 33.212V38H187.813Z" fill="white"/>
<path d="M16.6978 31.5655L23.566 31.5655L23.566 38.4338M30.4343 31.5655L23.5654 31.5649L23.566 24.6973" stroke="white" stroke-width="2.375" stroke-linecap="round" stroke-linejoin="round"/>
</svg>
