<svg width="129" height="47" viewBox="0 0 129 47" fill="none" xmlns="http://www.w3.org/2000/svg">
<g clip-path="url(#clip0_2323_3827)">
<path d="M113.82 23.0899C113.76 20.9899 113.82 16.3199 110.57 13.6699C108.93 12.3299 107.08 11.0399 104.81 10.4499C103.42 10.0899 102.04 9.95989 100.7 10.0299C98.43 10.1499 96.29 10.8899 94.54 12.0899C95.03 10.7299 91.73 2.89989 86.66 1.11989C80.36 -1.09011 71.69 0.0798907 70.41 3.72989C68.72 0.349891 60.4 -0.680109 54.29 1.45989C49.22 3.23989 45.92 11.0699 46.41 12.4299C44.66 11.2299 42.52 10.4899 40.25 10.3699C38.91 10.2999 37.53 10.4299 36.14 10.7899C33.87 11.3799 31.9 12.5299 30.38 14.0099C28.65 15.6899 27.42 18.0599 27.36 20.1599C24.36 16.6999 18.69 15.0299 12.73 16.0699C5.54004 17.3399 0.230043 23.2899 0.710043 30.4999C-0.139957 32.5999 -0.329957 35.3699 0.680043 37.8099C1.64004 40.1199 3.64004 41.4499 5.36004 42.2299C7.06004 42.9899 8.92004 43.3499 10.78 43.4199C12.6 43.4899 14.74 43.4499 15.72 43.3399C16.41 43.2599 17.09 43.1299 17.74 42.9599C19.66 44.8399 22.45 46.2499 25.31 45.9399C29.99 45.4299 32.38 41.5499 32.38 41.5499C39.65 43.6899 43.5 41.4399 46.76 39.1399C49.8 36.9999 53.29 31.8299 52.78 28.2099C52.76 28.0999 52.73 28.0099 52.69 27.9099C54.5 29.2599 56.72 30.0899 59.15 30.1999C64.22 30.4299 68.69 27.4099 70.55 22.9899C72.4901 27.2299 76.85 30.0899 81.79 29.8699C84.22 29.7599 86.44 28.9299 88.25 27.5799C88.21 27.6799 88.18 27.7699 88.16 27.8799C87.6401 31.4999 91.14 36.6699 94.18 38.8099C97.22 40.9499 100.47 42.8699 106.32 41.7599C108.76 46.6199 113.2 46.6199 115.07 46.6199C126.55 46.6199 129.38 37.0399 127.6 31.2299C126.54 27.7599 124.62 25.8099 121.36 23.8499C119.55 22.7499 114.65 22.5499 113.81 23.0899" fill="url(#paint0_linear_2323_3827)"/>
<path d="M7.58003 30.33C7.67392 30.33 7.75003 30.0927 7.75003 29.8C7.75003 29.5073 7.67392 29.27 7.58003 29.27C7.48615 29.27 7.41003 29.5073 7.41003 29.8C7.41003 30.0927 7.48615 30.33 7.58003 30.33Z" stroke="#28663D" stroke-miterlimit="10" stroke-linecap="round"/>
<path d="M16.7301 30.33C16.8239 30.33 16.9001 30.0927 16.9001 29.8C16.9001 29.5073 16.8239 29.27 16.7301 29.27C16.6362 29.27 16.5601 29.5073 16.5601 29.8C16.5601 30.0927 16.6362 30.33 16.7301 30.33Z" stroke="#28663D" stroke-miterlimit="10" stroke-linecap="round"/>
<path d="M8.25 33.9102C8.25 33.9102 9.58 35.3102 11.81 35.4502C14.04 35.5902 15.93 33.9102 15.93 33.9102" stroke="#28663D" stroke-miterlimit="10" stroke-linecap="round"/>
<path d="M9.28002 22.0801C9.70002 20.0701 9.00002 18.1101 7.91002 16.4301C7.37002 15.5901 6.74002 14.8001 6.12002 14.0101C5.46002 13.1701 4.78002 12.3501 3.96002 11.6601L3.74002 12.5001C4.29002 12.3301 4.70002 12.0001 4.98002 11.5001C5.17002 11.1501 4.93002 10.7701 4.55002 10.7501C3.72002 10.7001 2.93002 11.0301 2.37002 11.6501C2.22002 11.8101 2.17002 12.0601 2.29002 12.2601C2.41002 12.4701 2.63002 12.5401 2.85002 12.5001C2.92002 12.4901 3.00002 12.4401 3.07002 12.4401L2.72002 12.2901L2.74002 12.3101L2.59002 11.9601C2.56002 12.3901 2.85002 12.8301 3.34002 12.6801C3.83002 12.5301 3.88002 12.1601 3.86002 11.7401C3.86002 11.5701 3.77002 11.3901 3.61002 11.3101C2.64002 10.8201 1.92002 12.0601 2.81002 12.6801C3.34002 13.0501 3.84002 12.1801 3.31002 11.8201L3.10002 12.1801L2.85002 11.7501C2.85002 11.8301 2.85002 11.9201 2.87002 12.0001C2.90002 12.1901 2.94002 12.1101 2.99002 11.7401L3.48002 11.8701C3.74002 12.1201 3.50002 11.6901 3.43002 11.6201C3.36002 11.5501 3.28002 11.5001 3.19002 11.4701C2.98002 11.4101 2.77002 11.5101 2.57002 11.5501L3.13002 11.7801C3.10002 11.9701 3.08002 12.1701 3.05002 12.3701C3.44002 11.9301 3.93002 11.7201 4.52002 11.7601L4.09002 11.0101C3.94002 11.2801 3.74002 11.4501 3.44002 11.5501C3.11002 11.6501 2.92002 12.1301 3.22002 12.3901C4.62002 13.5601 5.77002 15.1301 6.80002 16.6301C7.83002 18.1301 8.67002 19.9501 8.28002 21.8301C8.15002 22.4601 9.11002 22.7301 9.24002 22.1001L9.28002 22.0801Z" fill="#2D6E42"/>
<path d="M17.41 21.9502C17.36 19.8502 17.07 17.7702 16.52 15.7402C16.25 14.7502 15.92 13.7802 15.53 12.8302C15.25 12.1402 14.91 11.0002 13.96 11.1002C13.45 11.1502 13.31 11.7302 13.71 12.0302C14.11 12.3302 14.7 12.3102 15.14 12.0302C15.5 11.8102 16.01 11.3802 15.86 10.9002C15.74 10.5402 15.3 10.2602 14.94 10.2102C14.63 10.1602 14.06 10.3202 13.9 10.6302C13.76 10.9002 13.86 11.2902 14.2 11.3602C14.4 11.4002 14.65 11.3602 14.82 11.2602C15.08 11.1002 15.17 10.6902 14.92 10.4702C14.84 10.4002 14.75 10.3802 14.69 10.3502L14.92 10.9102C14.8 11.0102 14.69 11.1302 14.57 11.2502C14.45 11.2902 14.59 11.2502 14.64 11.2502L14.16 10.8802C14.28 10.6802 14.39 10.4802 14.51 10.2702C14.41 10.2902 14.28 10.3202 14.17 10.3802C14.1 10.4302 14.03 10.4802 13.97 10.5402C14.04 10.5402 14.05 10.5302 14.01 10.5102L14.31 10.7402C14.17 10.9802 14.02 11.2302 13.88 11.4802C14.24 11.5302 14.53 11.4102 14.84 11.2302C15.2 11.0302 15.14 10.4102 14.72 10.3202C14.37 10.2502 14.05 10.2802 13.79 10.5402C13.56 10.7702 13.28 11.1202 13.42 11.4602C13.62 11.9502 14.54 11.9402 14.91 11.6602C15.42 11.2802 14.91 10.4102 14.41 10.8002C14.25 10.9202 14.02 10.7002 14.24 10.9102L14.37 11.4002C14.39 11.2902 14.57 11.3102 14.47 11.2902L14.35 10.3802C14.2 10.4602 14.06 10.5102 13.89 10.4902C13.51 10.4402 13.27 10.9502 13.46 11.2402C13.61 11.4802 13.9 11.5602 14.17 11.5202C14.51 11.4802 14.65 11.2802 14.81 11.2402C15.08 11.1802 15.22 10.8802 15.16 10.6202C15.1 10.3802 14.89 10.2702 14.68 10.2502C14.57 10.2402 14.44 10.2502 14.34 10.2802C14.18 10.3302 14.02 10.4602 13.99 10.6302C13.95 10.8402 14.01 11.1102 14.22 11.2102C14.32 11.2502 14.48 11.3802 14.25 11.1802L14.35 10.3902C14.43 10.3602 14.44 10.3502 14.38 10.3702C14.28 10.3902 14.32 10.3902 14.5 10.3902L14.8 11.1202C14.64 11.4502 14.65 11.2102 14.8 11.1802C14.97 11.1402 14.97 11.4702 14.96 11.0802C14.96 10.7402 14.84 11.0602 14.68 11.1502C14.52 11.2402 14.42 11.2702 14.26 11.1502L14.01 12.0802C14.32 12.0502 14.58 13.0002 14.66 13.1802C14.81 13.5602 14.96 13.9402 15.09 14.3302C15.37 15.1402 15.61 15.9602 15.81 16.7902C16.21 18.4802 16.42 20.2002 16.47 21.9402C16.49 22.5802 17.49 22.5802 17.47 21.9402L17.41 21.9502Z" fill="#2D6E42"/>
<path d="M14.35 12.23C14.9741 12.23 15.48 11.7868 15.48 11.24C15.48 10.6932 14.9741 10.25 14.35 10.25C13.7259 10.25 13.22 10.6932 13.22 11.24C13.22 11.7868 13.7259 12.23 14.35 12.23Z" stroke="#2D6E42" stroke-miterlimit="10" stroke-linecap="round"/>
<path d="M3.66003 12.6802C4.28411 12.6802 4.79003 12.237 4.79003 11.6902C4.79003 11.1434 4.28411 10.7002 3.66003 10.7002C3.03595 10.7002 2.53003 11.1434 2.53003 11.6902C2.53003 12.237 3.03595 12.6802 3.66003 12.6802Z" stroke="#2D6E42" stroke-miterlimit="10" stroke-linecap="round"/>
</g>
<defs>
<linearGradient id="paint0_linear_2323_3827" x1="4.29181e-05" y1="23.3099" x2="128.09" y2="23.3099" gradientUnits="userSpaceOnUse">
<stop stop-color="#99C555"/>
<stop offset="0.19" stop-color="#93C154"/>
<stop offset="0.45" stop-color="#82B753"/>
<stop offset="0.73" stop-color="#67A751"/>
<stop offset="1" stop-color="#489450"/>
</linearGradient>
<clipPath id="clip0_2323_3827">
<rect width="128.09" height="46.62" fill="white"/>
</clipPath>
</defs>
</svg>
