<svg width="56" height="80" viewBox="0 0 56 80" fill="none" xmlns="http://www.w3.org/2000/svg">
<rect width="56" height="56" rx="28" fill="#8DBF58"/>
<path d="M24.6665 11.333H31.3332M27.9998 31.333L32.9998 26.333" stroke="white" stroke-width="3" stroke-linecap="round" stroke-linejoin="round"/>
<path d="M28.0001 44.6662C35.3639 44.6662 41.3334 38.6966 41.3334 31.3328C41.3334 23.969 35.3639 17.9995 28.0001 17.9995C20.6363 17.9995 14.6667 23.969 14.6667 31.3328C14.6667 38.6966 20.6363 44.6662 28.0001 44.6662Z" stroke="white" stroke-width="3" stroke-linecap="round" stroke-linejoin="round"/>
<path d="M15.0812 76V68.668H12.5972V67.6H18.8372V68.668H16.3532V76H15.0812ZM20.5446 69.004C20.3126 69.004 20.1126 68.924 19.9446 68.764C19.7846 68.596 19.7046 68.392 19.7046 68.152C19.7046 67.92 19.7846 67.724 19.9446 67.564C20.1126 67.404 20.3126 67.324 20.5446 67.324C20.7846 67.324 20.9846 67.404 21.1446 67.564C21.3126 67.724 21.3966 67.92 21.3966 68.152C21.3966 68.392 21.3126 68.596 21.1446 68.764C20.9846 68.924 20.7846 69.004 20.5446 69.004ZM19.9086 76V70.048H21.1806V76H19.9086ZM22.6254 76V70.048H23.8494L23.8854 70.816C24.0774 70.52 24.3294 70.296 24.6414 70.144C24.9614 69.984 25.3094 69.904 25.6854 69.904C26.1414 69.904 26.5494 70 26.9094 70.192C27.2774 70.376 27.5614 70.668 27.7614 71.068C27.9694 70.7 28.2534 70.416 28.6134 70.216C28.9734 70.008 29.3654 69.904 29.7894 69.904C30.2534 69.904 30.6654 70 31.0254 70.192C31.3854 70.376 31.6654 70.66 31.8654 71.044C32.0734 71.428 32.1774 71.912 32.1774 72.496V76H30.9174V72.664C30.9174 72.128 30.8014 71.716 30.5694 71.428C30.3374 71.14 29.9934 70.996 29.5374 70.996C29.0814 70.996 28.7174 71.156 28.4454 71.476C28.1734 71.796 28.0374 72.24 28.0374 72.808V76H26.7774V72.664C26.7774 72.128 26.6574 71.716 26.4174 71.428C26.1774 71.14 25.8374 70.996 25.3974 70.996C24.9814 70.996 24.6254 71.148 24.3294 71.452C24.0414 71.748 23.8974 72.2 23.8974 72.808V76H22.6254ZM36.2018 76.144C35.6178 76.144 35.1018 76.012 34.6538 75.748C34.2058 75.484 33.8538 75.116 33.5978 74.644C33.3498 74.172 33.2258 73.632 33.2258 73.024C33.2258 72.392 33.3498 71.844 33.5978 71.38C33.8458 70.916 34.1938 70.556 34.6418 70.3C35.0978 70.036 35.6218 69.904 36.2138 69.904C36.7898 69.904 37.2938 70.032 37.7258 70.288C38.1578 70.536 38.4938 70.876 38.7338 71.308C38.9818 71.74 39.1058 72.232 39.1058 72.784C39.1058 72.896 39.1018 72.992 39.0938 73.072C39.0938 73.152 39.0858 73.248 39.0698 73.36H34.4978C34.5218 73.696 34.6058 73.996 34.7498 74.26C34.8938 74.516 35.0898 74.72 35.3378 74.872C35.5858 75.016 35.8698 75.088 36.1898 75.088C36.5338 75.088 36.8258 75.012 37.0658 74.86C37.3138 74.7 37.4978 74.476 37.6178 74.188H38.9378C38.8338 74.548 38.6578 74.876 38.4098 75.172C38.1698 75.468 37.8658 75.704 37.4978 75.88C37.1298 76.056 36.6978 76.144 36.2018 76.144ZM34.5098 72.46H37.8098C37.7938 71.996 37.6298 71.632 37.3178 71.368C37.0058 71.096 36.6258 70.96 36.1778 70.96C35.7778 70.96 35.4138 71.084 35.0858 71.332C34.7578 71.58 34.5658 71.956 34.5098 72.46ZM40.1684 76V70.048H41.3924L41.4284 71.056C41.6284 70.696 41.9004 70.416 42.2444 70.216C42.5964 70.008 43.0084 69.904 43.4804 69.904V71.236H43.1324C42.5644 71.236 42.1404 71.384 41.8604 71.68C41.5804 71.968 41.4404 72.412 41.4404 73.012V76H40.1684Z" fill="black"/>
</svg>
