<svg width="56" height="80" viewBox="0 0 56 80" fill="none" xmlns="http://www.w3.org/2000/svg">
<rect width="56" height="56" rx="28" fill="#8DBF58"/>
<path d="M24.6665 11.3329H31.3332M27.9998 31.3329L32.9998 26.3329" stroke="white" stroke-width="3" stroke-linecap="round" stroke-linejoin="round"/>
<path d="M28.0001 44.6662C35.3639 44.6662 41.3334 38.6966 41.3334 31.3328C41.3334 23.969 35.3639 17.9995 28.0001 17.9995C20.6363 17.9995 14.6667 23.969 14.6667 31.3328C14.6667 38.6966 20.6363 44.6662 28.0001 44.6662Z" stroke="white" stroke-width="3" stroke-linecap="round" stroke-linejoin="round"/>
<path d="M15.1001 76V68.428H12.5921V67.6H18.6161V68.428H16.1081V76H15.1001ZM20.399 68.728C20.199 68.728 20.031 68.664 19.895 68.536C19.767 68.4 19.703 68.232 19.703 68.032C19.703 67.84 19.767 67.68 19.895 67.552C20.031 67.424 20.199 67.36 20.399 67.36C20.591 67.36 20.755 67.424 20.891 67.552C21.027 67.68 21.095 67.84 21.095 68.032C21.095 68.232 21.027 68.4 20.891 68.536C20.755 68.664 20.591 68.728 20.399 68.728ZM19.895 76V70.048H20.903V76H19.895ZM22.6581 76V70.048H23.5701L23.6421 70.912C23.8341 70.592 24.0901 70.344 24.4101 70.168C24.7301 69.992 25.0901 69.904 25.4901 69.904C25.9621 69.904 26.3661 70 26.7021 70.192C27.0461 70.384 27.3101 70.676 27.4941 71.068C27.7021 70.708 27.9861 70.424 28.3461 70.216C28.7141 70.008 29.1101 69.904 29.5341 69.904C30.0141 69.904 30.4261 70 30.7701 70.192C31.1221 70.376 31.3941 70.664 31.5861 71.056C31.7781 71.44 31.8741 71.928 31.8741 72.52V76H30.8781V72.628C30.8781 72.012 30.7541 71.548 30.5061 71.236C30.2581 70.924 29.9021 70.768 29.4381 70.768C28.9581 70.768 28.5581 70.956 28.2381 71.332C27.9261 71.7 27.7701 72.228 27.7701 72.916V76H26.7621V72.628C26.7621 72.012 26.6381 71.548 26.3901 71.236C26.1421 70.924 25.7861 70.768 25.3221 70.768C24.8501 70.768 24.4541 70.956 24.1341 71.332C23.8221 71.7 23.6661 72.228 23.6661 72.916V76H22.6581ZM36.0685 76.144C35.5165 76.144 35.0165 76.016 34.5685 75.76C34.1285 75.504 33.7805 75.144 33.5245 74.68C33.2685 74.208 33.1405 73.656 33.1405 73.024C33.1405 72.4 33.2605 71.856 33.5005 71.392C33.7485 70.92 34.0925 70.556 34.5325 70.3C34.9805 70.036 35.5005 69.904 36.0925 69.904C36.6525 69.904 37.1405 70.028 37.5565 70.276C37.9725 70.524 38.2965 70.86 38.5285 71.284C38.7685 71.7 38.8885 72.168 38.8885 72.688C38.8885 72.8 38.8885 72.888 38.8885 72.952C38.8885 73.016 38.8845 73.116 38.8765 73.252H34.1365C34.1605 73.644 34.2525 73.996 34.4125 74.308C34.5805 74.612 34.8045 74.852 35.0845 75.028C35.3725 75.204 35.7005 75.292 36.0685 75.292C36.4845 75.292 36.8325 75.196 37.1125 75.004C37.3925 74.812 37.5965 74.552 37.7245 74.224H38.7205C38.6165 74.592 38.4445 74.92 38.2045 75.208C37.9645 75.496 37.6645 75.724 37.3045 75.892C36.9525 76.06 36.5405 76.144 36.0685 76.144ZM34.1485 72.472H37.8925C37.8685 71.936 37.6845 71.516 37.3405 71.212C36.9965 70.908 36.5725 70.756 36.0685 70.756C35.5885 70.756 35.1605 70.904 34.7845 71.2C34.4165 71.488 34.2045 71.912 34.1485 72.472ZM40.2245 76V70.048H41.1365L41.2205 71.188C41.4045 70.796 41.6845 70.484 42.0605 70.252C42.4365 70.02 42.9005 69.904 43.4525 69.904V70.96H43.1765C42.5205 70.96 42.0325 71.136 41.7125 71.488C41.3925 71.84 41.2325 72.344 41.2325 73V76H40.2245Z" fill="#666666"/>
</svg>
