<svg width="21" height="19" viewBox="0 0 21 19" fill="none" xmlns="http://www.w3.org/2000/svg">
<path d="M19.6875 7.92094H4.12125L8.88563 2.16626C9.10841 1.89672 9.21559 1.54922 9.18359 1.20021C9.15159 0.851195 8.98304 0.52926 8.715 0.305226C8.44697 0.0811908 8.10141 -0.0265933 7.75435 0.00558508C7.40729 0.0377634 7.08716 0.207268 6.86437 0.47681L0.301875 8.3961C0.257723 8.45909 0.218242 8.52526 0.18375 8.59408C0.18375 8.66008 0.18375 8.69967 0.0918752 8.76567C0.0323842 8.917 0.00123522 9.0781 0 9.24082C0.00123522 9.40355 0.0323842 9.56465 0.0918752 9.71598C0.0918752 9.78198 0.0918748 9.82157 0.18375 9.88757C0.218242 9.95639 0.257723 10.0226 0.301875 10.0855L6.86437 18.0048C6.98778 18.1538 7.14231 18.2736 7.31699 18.3558C7.49166 18.4379 7.68218 18.4803 7.875 18.48C8.18167 18.4806 8.47887 18.3732 8.715 18.1764C8.8479 18.0656 8.95776 17.9295 9.03829 17.776C9.11881 17.6224 9.16842 17.4544 9.18427 17.2815C9.20012 17.1086 9.1819 16.9343 9.13065 16.7685C9.0794 16.6027 8.99614 16.4488 8.88563 16.3154L4.12125 10.5607H19.6875C20.0356 10.5607 20.3694 10.4216 20.6156 10.1741C20.8617 9.9266 21 9.59088 21 9.24082C21 8.89077 20.8617 8.55505 20.6156 8.30753C20.3694 8.06 20.0356 7.92094 19.6875 7.92094Z" fill="black"/>
</svg>
