<svg width="37" height="33" viewBox="0 0 37 33" fill="none" xmlns="http://www.w3.org/2000/svg">
<path d="M1 11.4049C1 10.8334 1 10.5476 1.02558 10.3069C1.2723 7.98523 3.24222 6.14861 5.73237 5.91859C5.99055 5.89474 6.31363 5.89474 6.95977 5.89474C7.20874 5.89474 7.33323 5.89474 7.43892 5.88877C8.78857 5.81256 9.97042 5.01838 10.4748 3.84873C10.5142 3.75714 10.5512 3.65388 10.625 3.44737C10.6988 3.24086 10.7358 3.1376 10.7752 3.046C11.2796 1.87636 12.4614 1.08218 13.8111 1.00597C13.9168 1 14.0335 1 14.267 1H22.733C22.9665 1 23.0832 1 23.1889 1.00597C24.5386 1.08218 25.7204 1.87636 26.2248 3.046C26.2642 3.1376 26.3012 3.24086 26.375 3.44737C26.4488 3.65388 26.4858 3.75714 26.5252 3.84873C27.0296 5.01838 28.2114 5.81256 29.5611 5.88877C29.6668 5.89474 29.7913 5.89474 30.0402 5.89474C30.6864 5.89474 31.0094 5.89474 31.2676 5.91859C33.7578 6.14861 35.7277 7.98523 35.9744 10.3069C36 10.5476 36 10.8334 36 11.4049V24.1684C36 26.9097 36 28.2804 35.4278 29.3274C34.9244 30.2484 34.1213 30.9972 33.1334 31.4665C32.0104 32 30.5403 32 27.6 32H9.4C6.45972 32 4.98959 32 3.86655 31.4665C2.8787 30.9972 2.07555 30.2484 1.57222 29.3274C1 28.2804 1 26.9097 1 24.1684V11.4049Z" stroke="black" stroke-width="2" stroke-linecap="round" stroke-linejoin="round"/>
<path d="M18.5 24.6579C22.366 24.6579 25.5 21.736 25.5 18.1316C25.5 14.5272 22.366 11.6053 18.5 11.6053C14.634 11.6053 11.5 14.5272 11.5 18.1316C11.5 21.736 14.634 24.6579 18.5 24.6579Z" stroke="black" stroke-width="2" stroke-linecap="round" stroke-linejoin="round"/>
</svg>
