<svg width="13" height="13" viewBox="0 0 13 13" fill="none" xmlns="http://www.w3.org/2000/svg">
<mask id="mask0_2040_450" style="mask-type:alpha" maskUnits="userSpaceOnUse" x="0" y="0" width="13" height="13">
<rect width="12.5859" height="12.5859" fill="#D9D9D9"/>
</mask>
<g mask="url(#mask0_2040_450)">
<path d="M8.11426 8.66675L8.66699 8.11401L6.68628 6.1333V3.67065H5.89966V6.45201L8.11426 8.66675ZM6.29389 11.2747C5.60481 11.2747 4.95711 11.1439 4.3508 10.8824C3.74449 10.6209 3.21711 10.266 2.76864 9.8177C2.32018 9.36942 1.96511 8.84225 1.70343 8.2362C1.44183 7.63015 1.31104 6.98263 1.31104 6.29364C1.31104 5.60456 1.44179 4.95687 1.7033 4.35056C1.9648 3.74425 2.3197 3.21686 2.76799 2.7684C3.21627 2.31994 3.74344 1.96487 4.34949 1.70318C4.95554 1.44159 5.60306 1.31079 6.29205 1.31079C6.98113 1.31079 7.62883 1.44154 8.23514 1.70305C8.84145 1.96456 9.36883 2.31946 9.81729 2.76774C10.2658 3.21603 10.6208 3.7432 10.8825 4.34925C11.1441 4.95529 11.2749 5.60281 11.2749 6.29181C11.2749 6.98089 11.1441 7.62858 10.8826 8.23489C10.6211 8.8412 10.2662 9.36859 9.81795 9.81705C9.36966 10.2655 8.84249 10.6206 8.23645 10.8823C7.6304 11.1439 6.98288 11.2747 6.29389 11.2747ZM6.29297 10.488C7.45542 10.488 8.44525 10.0794 9.26246 9.26222C10.0797 8.44501 10.4883 7.45517 10.4883 6.29272C10.4883 5.13027 10.0797 4.14044 9.26246 3.32323C8.44525 2.50602 7.45542 2.09741 6.29297 2.09741C5.13052 2.09741 4.14069 2.50602 3.32347 3.32323C2.50626 4.14044 2.09766 5.13027 2.09766 6.29272C2.09766 7.45517 2.50626 8.44501 3.32347 9.26222C4.14069 10.0794 5.13052 10.488 6.29297 10.488Z" fill="#1C1B1F"/>
</g>
</svg>
