<svg width="16" height="16" viewBox="0 0 16 16" fill="none" xmlns="http://www.w3.org/2000/svg">
<path d="M14.0001 13.9999L11.1048 11.1046M11.1048 11.1046C11.6001 10.6093 11.9929 10.0213 12.261 9.37426C12.529 8.72717 12.6669 8.03363 12.6669 7.33323C12.6669 6.63283 12.529 5.93928 12.261 5.2922C11.9929 4.64511 11.6001 4.05715 11.1048 3.56189C10.6095 3.06663 10.0216 2.67377 9.3745 2.40574C8.72742 2.13771 8.03387 1.99976 7.33347 1.99976C6.63307 1.99976 5.93953 2.13771 5.29244 2.40574C4.64535 2.67377 4.0574 3.06663 3.56214 3.56189C2.56192 4.56211 2 5.9187 2 7.33323C2 8.74775 2.56192 10.1043 3.56214 11.1046C4.56236 12.1048 5.91895 12.6667 7.33347 12.6667C8.748 12.6667 10.1046 12.1048 11.1048 11.1046Z" stroke="#717171" stroke-width="1.5" stroke-linecap="round" stroke-linejoin="round"/>
</svg>
